<?xml version="1.0" encoding="UTF-8" standalone="no"?>
<svg
   xmlns:dc="http://purl.org/dc/elements/1.1/"
   xmlns:cc="http://creativecommons.org/ns#"
   xmlns:rdf="http://www.w3.org/1999/02/22-rdf-syntax-ns#"
   xmlns:svg="http://www.w3.org/2000/svg"
   xmlns="http://www.w3.org/2000/svg"
   xmlns:sodipodi="http://sodipodi.sourceforge.net/DTD/sodipodi-0.dtd"
   xmlns:inkscape="http://www.inkscape.org/namespaces/inkscape"
   height="60"
   width="160"
   version="1.1"
   viewBox="0 0 160 59.999999"
   id="svg200"
   sodipodi:docname="educartable.svg"
   inkscape:version="0.92.3 (unknown)"
   inkscape:export-filename="/home/gueno/Bureau/educartable.png"
   inkscape:export-xdpi="600"
   inkscape:export-ydpi="600">
  <defs
     id="defs204" />
  <sodipodi:namedview
     pagecolor="#ffffff"
     bordercolor="#666666"
     borderopacity="1"
     objecttolerance="10"
     gridtolerance="10"
     guidetolerance="10"
     inkscape:pageopacity="0"
     inkscape:pageshadow="2"
     inkscape:window-width="1366"
     inkscape:window-height="719"
     id="namedview202"
     showgrid="false"
     inkscape:zoom="2.475"
     inkscape:cx="8.1784338"
     inkscape:cy="19.49495"
     inkscape:window-x="0"
     inkscape:window-y="25"
     inkscape:window-maximized="1"
     inkscape:current-layer="g198" />
  <metadata
     id="metadata2">
    <rdf:RDF>
      <cc:Work
         rdf:about="">
        <dc:format>image/svg+xml</dc:format>
        <dc:type
           rdf:resource="http://purl.org/dc/dcmitype/StillImage" />
        <dc:title />
      </cc:Work>
    </rdf:RDF>
  </metadata>
  <g
     transform="matrix(.96126 0 0 .96126 -1.3742 -16.69)"
     id="g178">
    <g
       transform="matrix(.30163 0 0 .30666 -19.24 14.773)"
       id="g176">
      <path
         d="m75.189 121.71 23.252 17.003-9.446 0.895s-18.349-12.235-18.892-12.976c-1.6086-2.195 3.0517-6.5664 5.0862-4.922z"
         fill="#e88e08"
         id="path4" />
      <path
         d="m74.077 121.35c-2.2258 0.03-5.3312 3.4314-3.974 5.2834 0.096 0.131 0.8758 0.702 1.8854 1.4206l6.0476-4.2608-2.8473-2.0816c-0.3179-0.257-0.6995-0.3671-1.1117-0.3616z"
         fill="#cc3343"
         id="path6" />
      <path
         d="m141.14 180.57s-6.2345 5.4985-1.6072 10.548c4.6273 5.0493 13.616 7.6716 13.616 7.6716s4.9778 1.289 1.5826 3.6715-6.1069 3.2915-6.1595 1.9025-4.3343-1.4956-4.3343-1.4956-1.8827 4.076 2.0384 5.8184c3.9211 1.7423 9.9949 5.1058 15.032-0.3881 5.0377-5.494 9.5978-11.945 7.0988-14.714-2.499-2.7691-12.372-7.3493-8.2005-11.083 4.1714-3.7338-8.4608-7.7317-8.4608-7.7317z"
         fill="#0085a6"
         id="path8" />
      <path
         d="m159.41 178.54s-6.3218 6.4386-4.559 9.2922 11.3 4.6158 11.954 6.5337c0.6536 1.918 0.173 7.3541-0.9287 8.012-1.1017 0.6578-8.4927 6.5378-12.962 5.6556-4.4695-0.8822-5.3862-1.6238-6.821-3.2528-0.4164-0.4728-1.1417-1.0981-1.948-1.7445-0.4597 0.807-2.6807 5.0754 0.8665 6.6516 3.9211 1.7423 12.266 4.5711 17.304-0.9226 5.0382-5.4939 13.496-12.332 7.9378-15.938-5.5576-3.606-14.213-6.5932-10.042-10.327 1.523-1.3632 0.8023-2.7608-0.722-3.987z"
         fill="#dcc18a"
         id="path10" />
      <path
         d="m78.31 135.8c8.488-5.0344 10.67-6.8324 19.329-2.8606 2.0381 0.4584 2.1946 3.412-0.9348 7.7508-1.5799 2.1904-1.7685 2.3125-3.7615 1.7373-0.4775-0.1378-2.4906-0.7972-1.7295-3.3132 1.0258-3.3905 2.7503 0.2876 2.8477-0.0807 0.8016-3.0317 0.3844-3.8184-3.867-2.6197-8.1232 2.2688-6.5587 6.4764-4.9123 10.844 0.7064 1.8737 4.7888 10.576 7.7064 11.69 0.0286 0.1581 6.3221-0.3469 10.404-3.8997 4.6232-3.295 15.48-21.3 14.051-22.686 0 0 3.9061 29.667 3.3274 29.667-0.5786 0-22.74 12.896-27.754 12.695-5.5528-0.2225-8.3467-1.0811-12.173-4.009-6.4905-4.966-11.304-9.5705-10.853-17.907 0.3252-6.0146 8.6976-16.441 8.6976-16.441z"
         fill="#00a0bf"
         id="path12" />
      <path
         d="m79.176 124.62c-1.4977 0.5219-3.6588 1.668-3.6588 1.668l8.1121 5.2493 4.7024-1.0702z"
         fill="#fec72e"
         id="path14" />
      <path
         d="m70.558 127.54c-0.257-1.4238 0.9419-3.0058 1.7125-3.7968 0.7708-0.791 3.5966-1.9774 3.5966-1.9774l4.7954 3.4012s-1.831 0.3973-3.8534 1.8193c-1.6396 1.1527-2.3121 3.8758-2.3121 3.8758z"
         fill="#88a19d"
         id="path16" />
      <path
         d="m87.228 130.16c-4.2963-0.0621-8.49 1.294-13.264 4.1258 0 0-4.8503 11.436-5.1755 17.451-0.4507 8.3366 5.4316 14.144 11.922 19.11 3.8267 2.9278 5.5511 3.3851 11.104 3.6076 5.0135 0.201 28.378-12.428 28.956-12.428 0.0393 0 0.0565-0.148 0.057-0.4036-4.6152 2.78-15.96 8.5808-25.489 5.0597-4.0918-1.512-6.1414-1.4284-13.023-8.0572-7.5285-7.2517-9.466-22.769 5.081-26.274 1.7357-0.2989 8.548-1.5677 11.544 1.4826-0.1409-0.384-0.6162-0.8375-1.1786-0.982-3.7882-1.7376-7.1917-2.644-10.533-2.6923z"
         fill="#fce7c0"
         id="path18" />
      <path
         d="m107.85 154.89s-1.8415-0.2835-6.5472 11.245c-4.7058 11.528 1.637 3.1182 1.637 3.1182l8.1287-1.341c0.1396-0.0845 0.2764-0.1678 0.4145-0.2517z"
         fill="#0085a6"
         id="path20" />
      <path
         d="m68.742 153.55c-0.265 7.8095 2.7049 12.829 8.895 17.565 3.8266 2.9278 8.6246 4.4542 14.177 4.6767 4.4736 0.1792 23.459-10.537 27.975-13.228l0.1717-0.4304c-5.0528 2.909-15.641 7.8686-24.622 4.55-3.05-1.1269-5.7594-1.3108-9.1442-4.6172-7.7111-2.1238-14.165-5.669-17.453-8.5162z"
         fill="#dcc18a"
         id="path22" />
      <path
         d="m108.04 104.7c-2.8935 0.9355-9.693 4.1427-7.2336 6.2809 2.4594 2.1381 7.577 8.4395 10.082 5.6229 2.5047-2.8166-0.4326-7.7945-0.4326-7.7945z"
         fill="#d03d29"
         id="path24" />
      <path
         d="m179.22 82.392a4.5011 3.1183 0 0 0 -4.5007 3.1181 4.5011 3.1183 0 0 0 4.5007 3.1182 4.5011 3.1183 0 0 0 4.5013 -3.1182 4.5011 3.1183 0 0 0 -4.5013 -3.1181zm13.926 4.7708a4.7057 2.9293 0 0 0 -3.901 2.883 4.7057 2.9293 0 0 0 4.0974 2.9011c-0.0006-1.8481-0.063-3.7724-0.1964-5.7841zm-8.7089 1.6546a2.5575 2.1734 0 0 0 -2.5572 2.1735 2.5575 2.1734 0 0 0 2.5572 2.1736 2.5575 2.1734 0 0 0 2.5578 -2.1736 2.5575 2.1734 0 0 0 -2.5578 -2.1735zm6.3425 5.8586a2.1483 2.5513 0 0 0 -2.1483 2.5518 2.1483 2.5513 0 0 0 2.1483 2.5512 2.1483 2.5513 0 0 0 2.1483 -2.5512 2.1483 2.5513 0 0 0 -2.1483 -2.5518zm-73.041 11.151a5.2172 3.4018 0 0 0 -5.2168 3.4014 5.2172 3.4018 0 0 0 5.2168 3.4018 5.2172 3.4018 0 0 0 5.2174 -3.4018 5.2172 3.4018 0 0 0 -5.2174 -3.4014zm-5.3192 10.016a3.5805 2.3624 0 0 0 -1.6145 0.2568c0.0273 0.1667 0.0522 0.3323 0.08 0.4992l1.0053 3.9408a3.5805 2.3624 0 0 0 0.5292 0.028 3.5805 2.3624 0 0 0 3.5805 -2.3622 3.5805 2.3624 0 0 0 -3.5805 -2.3627zm8.5931 1.3229a3.9897 3.7798 0 0 0 -3.99 3.7801 3.9897 3.7798 0 0 0 3.99 3.7796 3.9897 3.7798 0 0 0 3.9894 -3.7796 3.9897 3.7798 0 0 0 -3.9894 -3.7801zm7.161 7.9375a1.3299 1.4174 0 0 0 -1.3299 1.4175 1.3299 1.4174 0 0 0 1.3298 1.4174 1.3299 1.4174 0 0 0 1.3298 -1.4174 1.3299 1.4174 0 0 0 -1.3298 -1.4175zm-8.5932 1.3229a2.1483 1.7009 0 0 0 -2.1482 1.7012 2.1483 1.7009 0 0 0 2.1482 1.7006 2.1483 1.7009 0 0 0 2.1483 -1.7006 2.1483 1.7009 0 0 0 -2.1483 -1.7012zm9.6158 4.5362a1.9437 1.6064 0 0 0 -1.9435 1.606 1.9437 1.6064 0 0 0 1.9435 1.6067 1.9437 1.6064 0 0 0 1.944 -1.6066 1.9437 1.6064 0 0 0 -1.944 -1.6061zm-9.6158 2.0784a3.5805 3.3073 0 0 0 -3.5804 3.3073 3.5805 3.3073 0 0 0 3.5804 3.3073 3.5805 3.3073 0 0 0 3.5805 -3.3073 3.5805 3.3073 0 0 0 -3.5805 -3.3073zm-3.605 8.388c-0.017 0.6075-0.0448 1.207-0.0878 1.7958a2.5575 1.323 0 0 0 0.7261 -0.9234 2.5575 1.323 0 0 0 -0.6383 -0.8723zm15.165 1.2507a3.2736 2.6458 0 0 0 -3.274 2.6458 3.2736 2.6458 0 0 0 3.274 2.6458 3.2736 2.6458 0 0 0 3.2733 -2.6458 3.2736 2.6458 0 0 0 -3.2733 -2.6458zm-15.345 5.6694a1.8414 1.7954 0 0 0 -0.6362 0.1126 47.284 47.284 0 0 1 -0.6948 2.9203 1.8414 1.7954 0 0 0 1.331 0.558 1.8414 1.7954 0 0 0 1.841 -1.7957 1.8414 1.7954 0 0 0 -1.841 -1.7952zm-2.0297 5.4064a70.369 70.369 0 0 1 -0.654 1.9502 1.2276 1.134 0 0 0 1.0467 -1.1198 1.2276 1.134 0 0 0 -0.3927 -0.8304zm10.52 3.854a3.1713 2.9293 0 0 0 -3.171 2.9295 3.1713 2.9293 0 0 0 3.171 2.929 3.1713 2.9293 0 0 0 3.1715 -2.929 3.1713 2.9293 0 0 0 -3.1715 -2.9295zm-9.002 0.1891a3.1713 1.9844 0 0 0 -3.1715 1.9844 3.1713 1.9844 0 0 0 3.1715 1.9844 3.1713 1.9844 0 0 0 3.171 -1.9844 3.1713 1.9844 0 0 0 -3.171 -1.9844zm2.9667 6.8038a4.092 2.6458 0 0 0 -4.0923 2.6458 4.092 2.6458 0 0 0 0.4537 1.2061c2.6774-0.1133 5.2785-0.3696 7.6823-0.8175a4.092 2.6458 0 0 0 0.0481 -0.3886 4.092 2.6458 0 0 0 -4.0918 -2.6458z"
         fill="#4ec5de"
         id="path26" />
      <path
         d="m107.75 94.539 0.2894 10.156 1.4467 5.3454c15.27-8.3722 28.902-19.554 46.584-23.787 0 0 28.356-8.2853 36.457-5.078 8.1017 3.2071 4.9189-5.0782 4.9189-5.0782-9.1291-7.7818-19.34-14.564-37.615-13.898-28.056-3.9236-47.45 4.0601-52.082 32.34z"
         fill="#d03d29"
         id="path28" />
      <path
         d="m154.37 8.4443c-2.0931 0.3785-1.522 3.0698-2.4548 4.4158-2.512 5.6428-7.7045 9.9196-13.013 13.379-2.2402 1.2953-4.6623 2.6036-7.3612 2.7647 0.5591 1.1214 0.0805 2.9602 1.745 3.3466 1.2345 0.6709 2.5148 0.4137 3.6665-0.2879 8.7654-3.9086 15.812-10.302 22.684-16.512 0.9445-0.9792 1.4693-2.4195 0.4794-3.5543-1.2082-1.8034-3.5-3.1898-5.7455-3.5523zm15.978 7.981c-1.4556 0.005-2.8344 0.4824-3.4815 1.7693-1.6213 2.2602-3.8592 4.5656-3.9659 7.4063 0.1722 1.2741 1.8268 0.7855 2.6714 0.5013 0.1982 1.7485 2.4296-0.8614 3.5596-1.1097 1.2948-0.4122 1.7813 2.3173 2.7556 3.1467 3.4145 5.0682 6.6462 10.259 10.122 15.282 5.6295 5.235 11.672 10.074 17.572 15.046 3.2359 12.049 6.3907 24.187 11.318 35.763 1.1709 2.2102 2.0418 5.0493 4.6214 6.1966 2.2723 0.5896 3.5468-1.8695 4.1192-3.4828 0.5404-1.4627 1.0403-3.1189-0.0605-4.5081-5.2168-11.962-10.086-24.079-16.144-35.707-0.623-1.0448-1.1794-2.394-2.589-2.6265-4.6474-3.4766-8.1062-8.0828-11.845-12.337-5.9547-7.3595-12.047-14.705-16.698-22.851-0.75-0.9463-0.157-2.6603-1.9558-2.4879zm-45.54 15.578c-3.3692 0.4413-6.0212 2.746-8.7427 4.4487-4.8029 3.2277-9.087 7.1686-13.988 10.175-1.9586 0.6135-1.6578 3.048-2.178 4.5158-1.2353 6.441-4.348 12.492-8.504 17.803-6.784 9.2017-14.819 17.533-22.1 26.383-1.8352 2.6531-0.0115 5.8117 1.6023 8.1287 0.951 1.2936 2.172 2.4728 3.7298 3.1342 0.9007-0.9469 4.1355-1.4137 2.6728-2.8485l-2.7903-4.1371c6.2595-6.6789 12.667-13.26 18.835-19.999l20.891-33.571c4.6762-1.9654 9.2594-4.2002 14.1-5.7588 2.0422-1.028 2.872-3.99 1.0713-5.6307-1.2103-1.2563-2.9136-2.1026-4.5986-2.6427z"
         fill="#fec72e"
         id="path30" />
      <path
         d="m154.71 8.595c-0.328 0.0008-0.5328 0.1427-0.6937 0.4144 2.2223 1.5494 4.3462 4.1311 5.7332 5.503 0.36-0.4974 0.775-1.1821 0.654-1.5735-0.2046-0.6614-0.818-2.5514-4.6031-4.0633-0.4732-0.189-0.8226-0.2812-1.0904-0.2806z"
         fill="#ffdf82"
         id="path32" />
      <path
         d="m233.36 77.153c-0.6478-0.031-1.813-0.1074-2.2189 0.7555-3.5043 14.685-12.779 24.714-19.3 36.438-5.4216 9.592-18.869 16.935-25.862 20.963 0 0 3.9728 22.518 5.4714 25.711 0.1203-0.7226 1.4516-2.4557 3.4395-4.7077 1.3478 5.688 4.1347 17.631 3.9787 18.495-0.2045 1.134 24.75-0.8152 24.75-0.8152 5.1699-2.1095 9.6335-5.8394 12.689-14.06 0.4986-8.6152-0.5566-13.999-3.9325-20.655-5.0764-0.3914-9.0584-0.1408-13.865 2.4567-2.602 4.609-1.362 6.768-0.5114 7.843l4.6031-2.7405c0.8413 0.5242 1.9114-0.008 2.2507 2.835 0.8272 3.5027-3.5108 6.6328-6.3424 8.1266-9.647 2.6057-16.396-1.214-22.704-3.895 7.0583-7.6414 16.881-19.158 17.282-19.728 10.604-15.109 25.638-28.718 23.457-39.828-5.1565-2.1935 0.9418-0.672-0.5714-1.6884-1.068-3.7811-0.7026-9.5301-1.2257-14.821-0.1917-0.7318-0.9986-0.6664-1.3872-0.685zm-41.91 83.867c-0.0375 0.2265 0.0395 0.3572 0.2574 0.3694-0.0743-0.0343-0.161-0.164-0.2573-0.3694z"
         fill="#00a0bf"
         id="path34" />
      <path
         d="m232.93 77.981c-1.2618 2.925-2.2092 7.4038 0.3776 12.235 4.4795 8.367-10.2 21.593-12.246 25.751-5.6628 10.171-22.405 28.602-32.225 32.571a14.703 14.703 0 0 0 -0.3497 0.1478c0.8407 4.2133 1.7337 8.3782 2.4107 10.739l2.2025-1.0056c5.417-6.762 23.273-26.275 23.756-26.962 10.604-15.109 26.066-26.524 27.501-33.491-5.1564-2.1936-6.1591-4.7953-7.161-6.2369-1.0679-3.7811-1.9322-8.6-2.4553-13.891-0.6989-0.2957-1.4803-0.566-1.8098 0.1432zm-1.7856 59.917c-4.3553 0.0745-8.436 1.563-12.642 3.8359 0 0 8.5927-1.323 12.275 1.8898 3.9453 3.1886 3.7137 11.706 0.5539 16.912-2.6016 4.286-11.398 6.901-21.218 8.2238-4.4394 0.598-8.911 0.1517-12.489-0.5152 0.7448 3.3897 1.3075 6.1684 1.2363 6.563-0.2045 1.1339 26.086 1.3228 26.086 1.3228 5.1698-2.1095 9.834-7.8434 12.89-16.064 0.4986-8.6151-1.4325-15.456-4.8084-22.112a20.017 20.017 0 0 0 -1.8842 -0.0563z"
         fill="#dcc18a"
         id="path36" />
      <path
         d="m133.79 30.662c9.094-3.3288 17.579-7.8942 22.858-18.976l2.604 2.6727c-1.3635 12.456-0.3409 21.132-6.6548 41.427 0.3199 6.0016 3.9354 5.9149 7.2336 6.4145 13.473-3.4638 5.663-23.562 5.4975-37.685l4.0508-4.2763c7.1667 17.114 24.58 29.586 28.645 33.943 7.0781 7.5873 12.894 28.171 20.254 40.358l-3.1828 4.2763c-7.523-3.3271-15.046-3.0354-22.569-2.1382l-84.489 8.0181c-10.899-3.6008-21.797-0.4402-32.696 0.5346l-4.6295-7.2163c12.316-13.793 25.888-24.491 33.564-49.712 7.0734-4.5783 14.295-10.522 21.122-12.829l2.604 2.6727c-5.5503 7.9442-2.3698 8.2269 2.8935 6.6817 7.8892-2.483 5.714-8.2198 2.8935-14.165z"
         fill="#293a39"
         id="path38" />
      <path
         d="m188.84 148.54a14.703 14.703 0 0 0 -0.3497 0.1478c0.8407 4.2133 1.7337 8.3782 2.4107 10.739l2.2025-1.0056c5.417-6.762 21.248-24.537 21.73-25.225 7.4681-21.545 11.328-0.8116-25.994 15.344z"
         fill="#dcc18a"
         id="path40" />
      <path
         d="m112.67 58.795c0-1.6508 14.178-16.037 21.122-17.923 6.9442-1.8866 14.756-5.8958 25.462-1.8866 10.706 4.0091 28.934 11.792 28.934 11.792l1.736 14.386-76.098 9.1974z"
         fill="#293a39"
         id="path42" />
      <path
         d="m123.98 88.062h58.515v25.324h-58.515z"
         fill="#fff"
         id="path44" />
      <ellipse
         rx="28.03"
         ry="14.705"
         cy="125.01"
         cx="153.44"
         fill="#a82218"
         id="ellipse46" />
      <ellipse
         rx="11.176"
         ry="4.6066"
         cy="130.51"
         cx="148.3"
         fill="#ea6644"
         id="ellipse48" />
      <path
         d="m139.43 117.26s0.665 2.693 2.6086 3.9687c1.9437 1.2757 13.606 1.9371 15.55 1.0867 1.9436-0.8505 5.473-7.6068 5.0638-8.0793-0.4092-0.4724-0.4092-0.567-0.4092-0.567z"
         fill="#fff"
         id="path50" />
      <path
         d="m113.42 171.37c-2.2198-0.5893-0.9179-2.7788-12.07 7.5786s-8.9198 18.544-8.9198 18.544-0.922 3.6393 2.688 7.4832c3.6101 3.844 20.72 7.4083 20.478 0.463-0.2421-6.9452-4.9871-15.613-7.1456-14.854-2.1585 0.7588 22.773-3.8345 24.11-6.5871s-19.14-12.628-19.14-12.628z"
         fill="#00a0bf"
         id="path52" />
      <path
         d="m155.95 62.413c-1.5426 0.005-3.0302-0.8575-4.556-0.8098-17.52 0.5478-31.6 9.2691-37.441 20.222-5.8065 10.888-5.103 22.568-3.069 34.774l4.8257 18.914c1.6795 14.354-4.513 23.572-7.2812 32.869 13.77 11.148 89.097 33.261 94.537 1.2674-2.9357-14.537-18.484-26.264-15.767-43.978 3.3129-11.27 7.0895-21.969 5.9335-38.743-6.9677-22.63-22.271-24.562-37.182-24.515zm17.395 33.858c4.1293-0.1263 7.675 3.1807 7.1772 6.7992 0 3.2384-3.2133 7.4673-7.1772 7.4673-3.9638 0-7.1771-4.2289-7.1771-7.4673-0.7562-3.4309 3.0658-6.8367 7.1771-6.7992zm-32.973 0.874c4.225-0.015 8.3522 3.569 7.6034 7.3127-0.0003 3.3078-3.1419 7.5929-7.341 7.593-4.199-0.0001-7.8655-4.2852-7.8659-7.593-0.7982-3.308 3.3212-7.3127 7.6035-7.3127zm25.016 17.974c0.1295-0.002 0.2533-0.002 0.3715 0h7.6677c5.4459 0-8.2851 15.432-24.16 15.234-10.644-0.1323-13.693-10.852-13.166-12.562 0.2705-0.8757 5.1736 1.8044 8.5355 1.2025 7.4047-1.4966 16.737-3.8022 20.751-3.8752z"
         fill="#4ec5de"
         id="path54" />
      <path
         d="m186.89 129.84c-2.3635 1.9478-0.66 11.501 2.9589 19.992 3.9493 9.2658 4.8183 10.257 6.5086 17.902l6.616 1.9159c-2.6992-13.366-16.06-24.357-16.084-39.81z"
         fill="#ace4ef"
         id="path56" />
      <path
         d="m156 62.602c-1.5425 0.005-3.0813-1.0465-4.607-0.9988-1.8453 0.0577-3.6498 0.2112-5.4132 0.4434-6.1716 2.6907-15.056 6.5178-24.581 10.608-3.1478 2.743-5.6774 5.8533-7.4467 9.171-5.8066 10.888-5.103 22.568-3.0692 34.774l4.8258 18.914c1.6795 14.354-4.513 23.572-7.2812 32.869l6.0007 0.0806c10.665-0.4252 20.184-3.0872 20.805-11.115 0.5534-7.1569 10.594-17.873 22.78-28.378-2.758 0.8869-5.7124 1.421-8.7458 1.3834-10.644-0.1323-13.693-10.852-13.166-12.562 0.2705-0.8757 5.1736 1.8044 8.5355 1.2025 7.4047-1.4967 16.737-3.8022 20.751-3.8752 0.1295-0.002 0.2533-0.002 0.3715 0h7.6677c0.6169 0 0.9856 0.1995 1.1352 0.5503 6.745-5.1157 13.176-9.6985 18.214-13.191 0.5618-4.637 0.756-9.727 0.3547-15.55-6.9677-22.63-22.22-24.373-37.131-24.326z"
         fill="#00a0bf"
         id="path58" />
      <path
         d="m195.11 165.52s20.863 3.872 25.164 13.655c4.3007 9.7825 6.5446 15.305 9.9103 15.936 3.3658 0.631 8.2275 1.42 8.2275 1.42l2.0568 2.209s2.2439 2.2089-4.6747 4.7334c-6.9185 2.5245-16.455 2.84-22.064-4.2601-5.6097-7.1002-19.821-15.463-26.552-14.832-6.7315 0.6311 7.9326-18.861 7.9326-18.861z"
         fill="#4ec5de"
         id="path60" />
      <path
         d="m111.19 170.47c-0.8558-0.004-2.151 0.5592-4.6786 2.546 0.3924 1.6382 1.2399 3.7357 2.7698 6.4426 2.3212 4.107 4.537 7.3418 6.5925 9.835 6.4503-1.2936 15.86-3.577 16.693-5.2927 1.337-2.7526-19.14-12.628-19.14-12.628-0.9017-0.2394-1.3156-0.899-2.2372-0.9033zm-7.171 18.498s-7.3783 2.8063-5.6422 5.7463c-0.7234 4.2763 2.8935 6.1472 5.2082 7.2162 2.3148 1.0691 2.4594 4.9445 3.0381 4.9445s9.1144-2.0045 7.8123-4.41c-1.302-2.4054-10.416-13.497-10.416-13.497z"
         fill="#0085a6"
         id="path62" />
      <path
         d="m108.55 166.61c-1.2968-0.1917-0.6954 4.827-7.7634 11.391-11.152 10.358-9.4867 19.678-9.4867 19.678s-0.166 4.3956 3.444 8.2396c3.61 3.8439 22.799 6.2739 22.557-0.6714-0.2037-5.8425-3.7272-13.036-6.126-14.722-2.538-1.0315-4.9792-1.9882-5.9003-2.2327-2.2197-0.5893-4.9605 6.674-4.9605 6.674s1.4544 3.0499 2.4087 1.5275 5.4216 1.883 5.1586 7.3623c-0.263 5.4794-6.9194 2.1582-10.976-0.2505s-1.6322-10.2 1.6745-14.649c3.3067-4.4493 12.474-10.981 12.624-18.179 0.0338-1.6115-2.6539-4.1681-2.6539-4.1681z"
         fill="#dcc18a"
         id="path64" />
      <path
         d="m150.1 178.7s2.6597-3.9688 10.128-4.1578c7.4679-0.189 11.867 4.4412 15.55 4.1578 3.6827-0.2835 9.616-2.2679 6.854-2.5514s-7.4678-1.134-8.0816-1.134-10.128-5.4806-10.128-5.4806l-8.4908 0.756-10.844 4.6302-1.1253 2.1734z"
         fill="#00a0bf"
         id="path66" />
      <path
         d="m118.9 151.3s-2.6192 2.2601-5.51 4.7946c-1.5525 4.3533-3.9385 7.248-5.122 11.223 7.1346 21.349 74.652 31.708 92.278 8.7833-8.5563-4.4791-7.5735 1.8258-20.267 3.9259-13.708 2.2678-26.189-1.1343-36.828-5.67s-9.2068-16.064-9.2068-16.064z"
         fill="#00a0bf"
         id="path68" />
      <path
         d="m133.41 172.44c0.4062-1.8606 1.8493-3.0334 3.2232-2.6196 1.374 0.414 2.1586 2.2577 1.7526 4.1183-0.406 1.8608-1.8492 3.0338-3.2234 2.62-1.374-0.414-2.1585-2.258-1.7524-4.1187zm0.9173 12.516c0.5622-1.628 2.0318-2.6623 3.168-2.322 1.1731 0.355 2.1583 1.967 1.9265 3.7664-1.4742-0.4446-3.5117-0.8611-5.0945-1.4444zm3.357-7.0665c0.2308-1.0572 1.1943-1.6804 2.152-1.3918 0.9577 0.2883 1.5471 1.3792 1.3164 2.4365-0.2307 1.0575-1.1943 1.6808-2.1521 1.3922-0.9578-0.2885-1.5472-1.3796-1.3163-2.437zm3.6382 6.1555c0.1939-0.8882 1.2626-1.3336 2.387-0.9948 1.1242 0.3387 1.8784 1.3331 1.6846 2.2212-0.1938 0.888-1.2623 1.3335-2.3866 0.9949-1.1244-0.3385-1.879-1.3331-1.685-2.2213zm10.345 1.5656c1.0144 0.3073 1.8155 1.8774 1.7899 3.1234-2.7769-0.1971-3.7883-0.4468-4.7846-0.621-1.2267-0.2146 1.347-2.9353 2.9948-2.5024zm1.3483-1.3893c0.1846-0.8458 1.178-1.2772 2.219-0.9637 1.0408 0.3135 1.735 1.2533 1.5504 2.099-0.1847 0.8458-1.1781 1.2772-2.219 0.9638-1.0408-0.3137-1.735-1.2534-1.5504-2.0991zm7.1547 3.2976c0.3508-1.6068 1.6138-2.6145 2.8212-2.2511 1.1878 0.3586 1.8824 2.1739 1.564 3.7626-1.4823-0.0293-3.0168 0.0108-4.513-0.0363-0.0308-0.38 0.0463-1.0993 0.1278-1.4752z"
         fill="#4ec5de"
         id="path70" />
      <ellipse
         rx="11.816"
         ry="12.568"
         cy="154.18"
         cx="138.46"
         fill="#0085a6"
         id="ellipse72" />
      <path
         d="m171.55 179.32s1.023 0.7559-3.3758 1.7953c-4.3989 1.0394-28.337-0.0945-28.337-0.0945l-18.516 1.7954s-7.877-8.221-9.3093-9.355c-1.4321-1.1339-5.4218-8.2209-4.1942-9.0714 1.2276-0.8504 5.7133-12.943 5.7133-12.943l23.749 17.762 22.199 2.1733 11.969 7.5595z"
         fill="#0085a6"
         id="path74" />
      <path
         d="m179.22 82.392c-2.4856 0.0001-4.5006 1.3961-4.5007 3.1181 0.0001 1.722 2.015 3.118 4.5007 3.1182 2.486 0 4.5012-1.396 4.5013-3.1182 0-1.7221-2.0154-3.1182-4.5013-3.1181zm13.927 4.7708c-2.253 0.2432-3.8991 1.4595-3.9016 2.883 0.002 1.4708 1.757 2.7123 4.1002 2.9016-0.0008-1.8478-0.0652-3.7735-0.1986-5.7846zm-8.7095 1.6546c-1.4124 0.0002-2.5573 0.9733-2.5572 2.1735-0.0001 1.2003 1.1448 2.1734 2.5572 2.1736 1.4127 0.0001 2.558-0.973 2.5578-2.1736 0.0001-1.2004-1.1451-2.1736-2.5578-2.1735zm6.3425 5.8586c-1.1866 0-2.1485 1.1425-2.1483 2.5518 0 1.409 0.9618 2.5512 2.1483 2.5512 1.1864 0 2.1482-1.1422 2.1483-2.5512 0.0002-1.4093-0.9617-2.5518-2.1483-2.5518zm1.5345 9.8278c-1.9206 0-3.4777 1.2267-3.478 2.7399 0.002 1.2717 1.1141 2.3753 2.6859 2.665 0.374-1.7424 0.707-3.5358 0.9824-5.3997a4.023 4.023 0 0 0 -0.1903 -0.005zm-74.576 1.323c-2.881 0-5.2164 1.5228-5.2168 3.4013 0 1.8787 2.3355 3.4017 5.2168 3.4018 2.8815 0 5.2175-1.523 5.2174-3.4018-0.0002-1.8787-2.3362-3.4014-5.2174-3.4014zm68.847 2.6458c-1.1299 0-2.0458 1.0575-2.0459 2.362 0.0001 1.3047 0.916 2.3622 2.0459 2.3622s2.0458-1.0575 2.0459-2.3621c-0.0001-1.3046-0.916-2.362-2.0459-2.3621zm-74.166 7.37c-0.5612 0.001-1.1143 0.089-1.6145 0.2569 0.0273 0.1667 0.0522 0.3323 0.08 0.4992l1.0053 3.9408c0.1751 0.018 0.352 0.0273 0.5292 0.028 1.9773 0 3.5803-1.0576 3.5805-2.3622 0.0002-1.3048-1.6029-2.3626-3.5805-2.3626zm8.5931 1.323c-2.2037-0.0002-3.9902 1.6923-3.99 3.7801 0.0001 2.0876 1.7865 3.7798 3.99 3.7796 2.2033-0.0001 3.9893-1.6922 3.9894-3.7796 0.0003-2.0875-1.786-3.78-3.9894-3.7801zm67.006 0.5674c-2.1466 0.0001-3.8867 1.2267-3.887 2.7399 0.001 1.489 1.6885 2.705 3.8003 2.7383 0.5229-1.7507 1.0444-3.5029 1.5502-5.2746-0.4646-0.1339-0.9616-0.203-1.4635-0.2036zm-59.845 7.37c-0.7344 0.0001-1.3298 0.6347-1.3298 1.4176 0 0.7828 0.5954 1.4174 1.3298 1.4174 0.7345 0 1.3299-0.6346 1.3298-1.4174 0-0.7828-0.5953-1.4175-1.3298-1.4175zm-8.593 1.323c-1.1867 0-2.1486 0.7617-2.1483 1.7012 0.0001 0.9393 0.9619 1.7006 2.1482 1.7006 1.1864 0 2.1482-0.7613 2.1483-1.7006 0.0002-0.9395-0.9617-1.7012-2.1483-1.7012zm9.6157 4.5362c-1.0733 0-1.9433 0.719-1.9435 1.606-0.0002 0.8873 0.87 1.6066 1.9435 1.6067 1.0737 0.0002 1.9442-0.7192 1.944-1.6066-0.0001-0.8873-0.8705-1.6063-1.944-1.6061zm-9.6158 2.0784c-0.772 0.001-1.5227 0.2332-2.1404 0.661 0.0009 0.0763 0.0009 0.1523 0.001 0.2578v0.0718c0.2997 1.7766 0.9405 3.95 0.8825 5.3828 0.2923 0.0706 0.9547 0.2403 1.2568 0.2411 1.9774 0 3.5805-1.4807 3.5805-3.3073 0-1.8265-1.603-3.3073-3.5805-3.3073zm68.517 4.9077a2.2325 2.2325 0 0 0 -0.0795 0.573c0.001 0.678 0.3145 1.3297 0.875 1.8206-0.2914-0.7883-0.5587-1.5854-0.7955-2.3936zm-56.957 4.731c-1.808-0.0002-3.274 1.1845-3.274 2.6458 0 1.4614 1.466 2.646 3.274 2.6458 1.8078 0 3.2733-1.1846 3.2733-2.6458s-1.4655-2.6457-3.2733-2.6458zm-15.345 5.6694a1.8855 1.8855 0 0 0 -0.6362 0.1126 47.284 47.284 0 0 1 -0.6948 2.9203c0.3468 0.3555 0.8277 0.5572 1.331 0.558 1.017 0 1.8413-0.804 1.841-1.7957 0-0.9914-0.8243-1.795-1.841-1.7952zm-2.0297 5.4064a70.369 70.369 0 0 1 -0.654 1.9502c0.6007-0.0827 1.0458-0.5587 1.0467-1.1198-0.0003-0.3152-0.1426-0.616-0.3927-0.8304zm10.52 3.854c-1.7514 0.0002-3.171 1.3118-3.171 2.9295 0.0003 1.6176 1.4198 2.9289 3.171 2.929 1.7515 0.0002 3.1714-1.3112 3.1715-2.929 0.0002-1.618-1.4198-2.9296-3.1715-2.9295zm-9.002 0.1891c-1.7516 0-3.1715 0.8884-3.1715 1.9844s1.42 1.9845 3.1715 1.9844c1.7513-0.0001 3.171-0.8885 3.171-1.9844 0-1.0958-1.4197-1.9843-3.171-1.9844zm34.986 3.591c-1.6381 0-2.9662 0.6343-2.9668 1.417 0 0.7829 1.3283 1.4175 2.9668 1.4175s2.9668-0.6346 2.9667-1.4175c-0.0005-0.7827-1.3286-1.417-2.9667-1.417zm-15.243 2.4567c-1.8078 0.0002-3.2733 1.4808-3.2733 3.3073 0.0009 0.5392 0.1319 1.07 0.382 1.5462l5.7389 0.077c0.278-0.495 0.4248-1.054 0.4263-1.6232 0-1.8267-1.4658-3.3075-3.2739-3.3073zm7.9794 0c-1.0168 0.0002-1.8411 0.8462-1.8411 1.8898 0 1.0437 0.8243 1.8897 1.841 1.8898 1.017-0.0001 1.8412-0.8461 1.8412-1.8898 0-1.0436-0.8243-1.8896-1.8411-1.8898zm-24.756 0.756c-2.2601 0-4.0924 1.1845-4.0924 2.6459 0.001 0.4237 0.1595 0.8411 0.462 1.217l7.1767 0.096c0.3556-0.3994 0.5436-0.852 0.5454-1.313 0-1.4612-1.832-2.6458-4.0918-2.6459zm9.1044 3.9688a2.0956 2.0956 0 0 0 -0.4817 0.0584l1.0215 0.0134a2.0882 2.0882 0 0 0 -0.5398 -0.0718z"
         fill="#4ec5de"
         id="path76" />
      <path
         d="m132.97 140.01c-0.003-0.4435 1.338-2.225 1.338-2.225s9.1109 0.7213 14.399 0.2462c5.2878-0.475 10.231 2.4882 10.231 2.4882s0.2594 1.8828 4.5286-3.4634c4.2693-5.3461 15.672-11.178 15.672-11.178l0.7749 5.205-16.615 17.059s-20.577-3.8671-21.438-3.862c-0.8613 0.005-8.8897-4.2697-8.8897-4.2697z"
         fill="#d8f0e6"
         id="path78" />
      <path
         d="m132.85 139.68s0.3575-1.6648 3.0676-1.2377c2.7102 0.4272 9.48 0.7192 10.218 0.7147 0.7382-0.004 6.1562 0.5174 6.1562 0.5174l7.273 1.8408s10.271-9.2618 14.441-11.282c4.1696-2.0202 6.8641-3.8099 6.8641-3.8099l0.7765 5.4268-20.782 19.523z"
         fill="#b2d2cc"
         id="path80" />
      <path
         d="m131.38 139.77 27.976 0.6652 23.221-13.934 0.6194 0.3768 6.3153 39.758-18.738 13.705-27.531-1.2142z"
         fill="#d03d29"
         id="path82" />
      <path
         d="m160.06 141.06 23.106-14.294 6.3046 39.2s-18.344 14.532-18.697 13.907c-0.3524-0.6249-10.714-38.812-10.714-38.812z"
         fill="#ea6644"
         id="path84" />
      <path
         d="m168.3 141.21 8.0647-4.2672c1.4697-0.7777 3.1696-0.8857 4.0324 0.438l0.9178 3.8052c0.3618 1.5 0.5907 2.8572-0.879 3.6349l-8.2811 4.4253c-1.466 0.7833-2.9984 0.4927-3.8612-0.831l-1.181-4.1171c-0.4264-1.4863-0.2823-2.3105 1.1874-3.0881z"
         fill="#d8f0e6"
         id="path86" />
      <path
         d="m165.34 169.73-8.9585 0.4453-10.931 4.6119-2.4936 3.0498c-0.003-0.4702 19.283-3.6206 22.248-2.6978 2.2517 0.7008 6.4842 2.3707 8.4062 3.14l1.477-1.0805 1.0706-3.4575z"
         fill="#bc251c"
         id="path88" />
      <path
         d="m168.19 170.79c0.649 2.3448 1.248 4.5052 1.6796 6.0277a273.47 273.47 0 0 1 3.606 1.4114c0.5094-0.363 3.4653-2.4307 4.0688-2.8759l-1.3923-1.6108z"
         fill="#d03d29"
         id="path90" />
      <path
         d="m155.91 154.87c-3.6914 0.0222-11.398 2.0217-16.798 4.0493-0.7396 0.2777-1.3132 0.4714-1.773 0.6095l2.7181 9.019 13.015-1.7317 11.577-7.194s-5.0484-4.7742-8.7398-4.752z"
         fill="#bc251c"
         id="path92" />
      <path
         d="m111.85 159.08c-2.2881 15.58 11.122 19.722 15.435 20.312 5.294 0.7482 5.7857 1.6636 29.368-6.8154 7.725-3.0927 12.188 3.7507 17.071 3.4745 9.9017-1.6763 6.945-2.165 9.9824-3.2072l-7.958-3.1443-33.963-7.3706z"
         fill="#dcc18a"
         id="path94" />
      <path
         d="m195.43 174.52c-2.528 0.0413-4.2142 1.7327-7.7455 3.33-2.2069 3.7134-3.2693 6.7925-0.5002 6.5329 6.7316-0.6312 20.943 7.7315 26.552 14.832 4.6826 5.9269 12.167 5.5484 18.515 4.1692-0.5666-1.4174-1.8146-1.7963-4.0976-3.1382-6.7517-3.9688-14.322-16.064-25.37-22.867-3.4526-2.126-5.6065-2.8868-7.3545-2.8582z"
         fill="#00a0bf"
         id="path96" />
      <path
         d="m191.73 181.68c-2.5515 0.8698-6.2069 2.9601-9.1772 5.1693 6.6406-4.0329 25.281 4.56 31.182 12.359 5.4511 7.2048 15.146 6.7845 22.064 4.26 4.7838-1.7455 5.1866-3.339 4.98-4.1569-2.2343 0.4225-12.001 1.4747-15.077 1.4747-3.3658 0-8.7885-5.2067-11.219-9.7824-8.2356-10.538-11.145-13.084-22.752-9.324z"
         fill="#dcc18a"
         id="path98" />
      <path
         d="m118.76 140.7c-4.8356 8.5356-13.114 25.093-0.7161 33.167 6.2434 2.7254 12.724 4.3553 20.05 2.0789 7.0061-2.7855 12.005-6.9785 21.483-7.9375 15.156-0.4865 11.452 8.9427 20.255 6.4256 2.569-0.7346 4.78-1.2374 5.9333-6.4256-1.2408-3.2039-2.2075-2.281-3.2736-1.323-1.463 2.8265-4.1733 2.773-6.7517 3.0238-5.1613-5.978-8.7949-11.497-13.094-14.174-7.8284-0.0144-14.105 4.0316-20.869 6.8035-3.815-1.0341-7.5452-2.3222-10.6-5.6392-2.969-9.439-6.3635-17.603-12.418-16z"
         fill="#00a0bf"
         id="path100" />
      <path
         d="m233.72 77.535c-0.0427 0.1482-2.1558 7.5961 3.4753 14.193-1.068-3.7812-1.9323-8.5998-2.4554-13.891-0.3411-0.1443-0.7016-0.281-1.0199-0.3024zm3.9626 14.948c-5.2684 6.2545-22.961 37.734-20.185 38.18 9.07-12.141 28.639-23.632 26.858-32.698-4.3577-1.8538-5.7426-3.9916-6.6736-5.4818zm-6.5381 45.415c-4.3553 0.0745-8.436 1.563-12.642 3.8359 0 0 8.5927-1.323 12.275 1.8898 3.775 3.0508 3.724 10.978 0.945 16.217 1.9115 0.4189 3.878 0.7125 5.8529 0.8935 0.0868-0.2232 0.1768-0.4412 0.2612-0.6682 0.4986-8.6151-1.4325-15.456-4.8084-22.112a20.017 20.017 0 0 0 -1.8842 -0.0563z"
         fill="#fce7c0"
         id="path102" />
      <path
         d="m105.96 152.52c-0.9626 1.1228-1.8436 2.0045-2.5701 2.5224-3.4389 2.9928-10.271 3.9201-12.363 4.0447 2.1552 3.8575 3.8179 4.9137 7.4614 3.605 2.9057-1.0439 5.6294-5.996 7.4714-10.172zm121.08-63.198c-1.0417 2.1914-2.0753 3.8775-3.242 5.8593 0 0 2.7813 1.1299 3.3924 1.1305 1.8077-0.0002 3.2732-1.5653 3.2734-3.496-0.001-1.9024-1.643-3.455-3.4238-3.4938zm0.6618 9.0687c-1.2996 0-2.3532 0.677-2.353 1.512-0.0002 0.8352 1.0534 1.5122 2.353 1.5121 1.2996 0 2.3531-0.677 2.353-1.512 0.0001-0.8351-1.0534-1.5121-2.353-1.512zm-4.0918 4.7248c-0.2577 0.0003-4.1315-0.9106-4.3838-0.862-0.731 1.8436-2.5934 3.7207-3.4169 5.4948 0.7079 0.9342 1.358 1.2903 2.5925 1.291 2.0903-0.0002 3.7847-1.5656 3.7846-3.4964 0.0001-1.931 3.514-2.4272 1.4236-2.4274zm-9.8142 7.5386a102.05 102.05 0 0 1 -1.9608 3.6918c-0.0885 0.1564-0.1849 0.3104-0.2775 0.4656 0.3316 0.9798 0.9994 1.5971 1.7292 1.5984 1.0735-0.0002 1.9437-1.3118 1.9436-2.9296-0.0003-1.322-0.588-2.4798-1.4345-2.8262zm-4.5913 7.4828c-1.2082 1.4748-2.5783 2.8848-4.0499 4.225 0.872 0.5407 2.1177 0.8502 3.426 0.8512 2.5425 0 4.6037-1.1422 4.6038-2.5513-0.002-1.2744-1.7017-2.3523-3.98-2.525zm-6.423 6.2637c-0.9196 0.7476-1.8614 1.47-2.8135 2.1663 0.4254 0.4944 1.2593 0.8037 2.1679 0.804 1.3561 0.0001 2.4555-0.6769 2.4554-1.512-0.0004-0.6818-0.7416-1.279-1.8098-1.4583zm-5.599 4.115c-2.3753 1.5981-4.7276 3.0328-6.8605 4.2835 0.7784 1.1848 2.4296 1.9406 4.244 1.9425 2.5989-0.0001 4.7056-1.5232 4.7055-3.4019-0.001-1.1343-0.7849-2.1934-2.089-2.8241zm6.9998 0.9343c-1.3559 0-2.4551 0.719-2.4554 1.6061-0.0002 0.8873 1.0992 1.6067 2.4554 1.6066 1.356 0 2.455-0.7194 2.4549-1.6066-0.0003-0.887-1.0992-1.606-2.4549-1.6061zm-12.992 6.4254c-1.7516 0-3.1715 1.1846-3.1715 2.6459s1.42 2.646 3.1715 2.6458c1.7513-0.0001 3.171-1.1847 3.171-2.6458 0-1.4612-1.4197-2.6457-3.171-2.6459zm32.326 8.6936c-1.5257-0.0002-2.7626 0.9306-2.7626 2.079 0.001 0.3713 0.1341 0.7356 0.3855 1.0552l1.4562-0.8667c0.7058 0.4397 1.5707 0.1441 2.032 1.7131 1.0025-0.3315 1.65-1.0775 1.6509-1.9017 0-1.1481-1.2366-2.0789-2.762-2.079zm1.9435 6.8037a5.358 5.358 0 0 0 -0.6076 0.035c-0.2515 1.1557-0.9865 2.2394-1.9284 3.2025 0.6212 0.4623 1.5524 0.7308 2.536 0.7312 1.8078 0 3.2733-0.8885 3.2733-1.9844s-1.4655-1.9843-3.2733-1.9844zm-24.137 4.9098c-0.2712 0.466-0.4136 0.9866-0.4146 1.5156 0 1.7744 1.5572 3.2127 3.4781 3.2128 1.6945 0 3.1424-1.128 3.4283-2.6707-2.3219-0.4358-4.4371-1.1988-6.4918-2.0577zm19.267 0.2542c-0.721 0.4938-1.4425 0.9219-2.0861 1.2614-0.1949 0.0526-0.3856 0.099-0.5774 0.1468a1.5105 1.5105 0 0 0 -0.037 0.3256c-0.0001 0.9917 0.9618 1.7957 2.1484 1.7957s2.1485-0.804 2.1482-1.7957c-0.0007-0.8134-0.6556-1.5247-1.596-1.7338zm-5.7958 1.9999c-1.5089 0.1902-2.9218 0.2278-4.258 0.1447a3.3254 3.3254 0 0 0 -0.0118 0.2506c0 1.4613 0.9618 2.6459 2.1483 2.6459 1.1864 0 2.1483-1.1846 2.1483-2.6459a3.3016 3.3016 0 0 0 -0.027 -0.3953zm3.6073 3.4194c-1.0736-0.0001-1.944 0.5075-1.9441 1.1338 0.0001 0.6263 0.8705 1.134 1.944 1.1338 1.0734 0 1.9435-0.5076 1.9436-1.1338-0.0001-0.6261-0.8702-1.1337-1.9435-1.1338zm-102.61-13.6a1.8414 1.7954 0 0 0 -1.077 0.341 54.644 54.644 0 0 0 -0.7322 1.7803 1.8414 1.7954 0 0 0 1.8092 1.4697 1.8414 1.7954 0 0 0 1.8412 -1.7958 1.8414 1.7954 0 0 0 -1.8412 -1.7952zm-2.8543 5.103a36.552 36.552 0 0 0 -0.5941 2.1296 1.2276 1.134 0 0 0 0.584 0.138 1.2276 1.134 0 0 0 1.2275 -1.1338 1.2276 1.134 0 0 0 -1.2174 -1.1338zm11.345 4.1574a3.1713 2.9293 0 0 0 -3.171 2.9296 3.1713 2.9293 0 0 0 3.171 2.929 3.1713 2.9293 0 0 0 3.1715 -2.929 3.1713 2.9293 0 0 0 -3.1715 -2.9296zm-9.002 0.1891a3.1713 1.9844 0 0 0 -3.1715 1.9844 3.1713 1.9844 0 0 0 3.1715 1.9844 3.1713 1.9844 0 0 0 3.171 -1.9844 3.1713 1.9844 0 0 0 -3.171 -1.9844zm34.986 3.591a2.9667 1.4174 0 0 0 -2.9668 1.417 2.9667 1.4174 0 0 0 2.9668 1.4175 2.9667 1.4174 0 0 0 2.9667 -1.4175 2.9667 1.4174 0 0 0 -2.9667 -1.417zm-15.243 2.4567a3.2736 3.3073 0 0 0 -3.2733 3.3073 3.2736 3.3073 0 0 0 3.2733 3.3073 3.2736 3.3073 0 0 0 3.2739 -3.3073 3.2736 3.3073 0 0 0 -3.2739 -3.3073zm7.9794 0a1.8414 1.8899 0 0 0 -1.8412 1.8898 1.8414 1.8899 0 0 0 1.8412 1.8898 1.8414 1.8899 0 0 0 1.8411 -1.8898 1.8414 1.8899 0 0 0 -1.8411 -1.8898zm-24.756 0.756a4.092 2.6458 0 0 0 -4.0924 2.6459 4.092 2.6458 0 0 0 4.0923 2.6458 4.092 2.6458 0 0 0 4.0918 -2.6458 4.092 2.6458 0 0 0 -4.0918 -2.6458zm9.1044 3.9688a1.9437 1.7954 0 0 0 -1.9436 1.7952 1.9437 1.7954 0 0 0 1.9435 1.7953 1.9437 1.7954 0 0 0 1.9436 -1.7953 1.9437 1.7954 0 0 0 -1.9436 -1.7952z"
         fill="#4ec5de"
         id="path104" />
      <path
         d="m124.59 142.59c-3.3179 1.816-7.5737 6.0476-4.6904 13.423 3.7614 9.6216 7.8121 15.769 16.492 8.2852 1.0249-0.8836 1.789-1.8576 2.3424-2.8866-2.7257-0.9498-5.3214-2.2886-7.5554-4.7145-1.8506-5.8835-3.8668-11.271-6.5891-14.107zm38.058 12.942c-2.0502-0.004-3.9935 0.2727-5.8675 0.7301-2.9548 1.553-5.0082 3.3797-2.4492 4.5615 2.8807 1.3305 7.2344 1.6147 11.867 4.2262 1.4095 0.4364 4.3069 3.6844 5.1992 4.3109 2.383 0.9093 3.3 2.1323 4.6346 0.8174 0.1778-0.1752 0.3476-0.3577 0.5136-0.5431-0.2683 0.023-0.537 0.0453-0.804 0.0713-5.1613-5.9781-8.7944-11.497-13.094-14.174z"
         fill="#4ec5de"
         id="path106" />
      <path
         d="m124.29 157.61a3.1713 2.9293 0 0 0 -2.945 1.8459c0.661 1.4542 1.3468 2.7676 2.0767 3.9a3.1713 2.9293 0 0 0 0.8682 0.1127 3.1713 2.9293 0 0 0 3.1715 -2.929 3.1713 2.9293 0 0 0 -3.1715 -2.9296zm10.741 6.2368a3.2736 3.3073 0 0 0 -3.2733 3.3073 3.2736 3.3073 0 0 0 0.003 0.0584c1.387-0.4927 2.9206-1.437 4.6355-2.9156 0.0368-0.0318 0.0707-0.0646 0.1069-0.0966a3.2736 3.3073 0 0 0 -1.4719 -0.3534z"
         fill="#ace4ef"
         id="path108" />
      <path
         d="m89.473 133.99c-0.9037 0.0003-1.6362 0.8673-1.6364 1.9368 0.0006 0.3696 0.0905 0.7313 0.259 1.0423 0.8042-0.3964 1.7045-0.7462 2.7128-1.0278 0.1037-0.0292 0.2-0.0538 0.2987-0.0796-0.0297-1.043-0.7523-1.8706-1.634-1.8717zm-4.7055 3.2127c-0.565-0.0001-1.0231 0.4651-1.0232 1.0392-0.0002 0.5743 0.458 1.0399 1.0232 1.0397 0.008-0.0002 0.016-0.0005 0.024-0.001 0.2999-0.2905 0.6267-0.577 0.9824-0.8557a1.0565 1.0565 0 0 0 0.0163 -0.183c-0.0002-0.5738-0.458-1.039-1.0227-1.0392zm29.291 3.7795a4.4473 4.4473 0 0 0 -0.1801 0.005c-0.4474 0.7717-0.9218 1.5595-1.412 2.3533 0.4525 0.1863 1.0137 0.2878 1.5921 0.2878 1.4126 0.0001 2.5578-0.5922 2.5578-1.3229s-1.1452-1.323-2.5578-1.3229zm1.7393 7.3706c-1.0168 0.0001-1.841 0.8038-1.8411 1.7952-0.0002 0.9916 0.8241 1.7956 1.8411 1.7958 1.017-0.0002 1.8414-0.8042 1.8412-1.7958-0.0001-0.9914-0.8244-1.795-1.8412-1.7952zm-6.8325 0.2827c-1.2242 1.7183-2.4316 3.2691-3.5122 4.4674 0.5889 0.8651 1.617 1.3907 2.7234 1.3921 1.7797 0 3.2224-1.3326 3.2224-2.9765-0.002-1.3622-1.0038-2.5496-2.4336-2.883zm-25.084 3.4028c-1.0736-0.0001-1.944 0.698-1.944 1.5591 0 0.8612 0.8704 1.5593 1.944 1.5591 0.8932-0.0008 1.6707-0.4899 1.8848-1.1855-0.044-0.5368 0.0657-0.7952-0.4532-1.4252-0.3108-0.3774-0.8868-0.5067-1.4316-0.5075zm29.216 0.8686c-0.2528 0.6852-0.2894 1.6382-0.6199 2.2645 0.0001 0.6261-0.221 0.552 0.4568 0.552 0.6779 0 1.2274-0.5076 1.2275-1.1338 0.0002-0.6263-0.3863-1.6826-1.0644-1.6827zm-10.836 2.9777c-1.1967 0.7676-2.619 1.361-4.0583 1.8216v0.002c0 1.0959 1.3052 1.9843 2.9153 1.9844 1.6101 0 2.9153-0.8885 2.9153-1.9844-0.001-0.7944-0.6987-1.5116-1.7723-1.8231zm-17.255 1.634c-0.5652 0-1.0234 0.3808-1.0233 0.8506 0 0.4699 0.4581 0.8507 1.0233 0.8506 0.5651 0.0001 1.0233-0.3807 1.0232-0.8506 0.0001-0.4698-0.458-0.8507-1.0232-0.8506zm22.659 0c-1.0452 0-1.8926 0.8884-1.8926 1.9844s0.8474 1.9844 1.8926 1.9844c1.0453 0 1.8926-0.8884 1.8927-1.9844 0-1.096-0.8474-1.9844-1.8927-1.9844zm7.6214 0.2837c-1.7516 0-3.1715 0.8884-3.1715 1.9844s1.42 1.9845 3.1715 1.9844c1.7513-0.0001 3.171-0.8885 3.171-1.9844s-1.4197-1.9843-3.171-1.9844zm-16.726 3.685c-1.1018 0-1.995 0.825-1.995 1.8429 0 1.0177 0.8932 1.8428 1.995 1.8427 1.1016-0.0002 1.9945-0.8252 1.9944-1.8427 0.0001-1.0176-0.8928-1.8426-1.9944-1.8428z"
         fill="#4ec5de"
         id="path110" />
      <path
         d="m192.32 104.5a3.4782 2.7403 0 0 0 -3.478 2.7399 3.4782 2.7403 0 0 0 2.6859 2.665c0.374-1.7421 0.707-3.5352 0.9824-5.3987v-0.001a3.4782 2.7403 0 0 0 -0.1903 -0.005zm-5.7287 3.9688a2.046 2.3624 0 0 0 -2.0459 2.362 2.046 2.3624 0 0 0 2.0459 2.3622 2.046 2.3624 0 0 0 2.0459 -2.3621 2.046 2.3624 0 0 0 -2.0459 -2.3621zm1.4322 9.2604a3.8874 2.7403 0 0 0 -3.887 2.7399 3.8874 2.7403 0 0 0 3.8003 2.7383c0.2141-0.717 0.4272-1.435 0.64-2.1539 0.0663-0.2234 0.1325-0.4475 0.1986-0.6712 0.239-0.8124 0.4767-1.6265 0.7105-2.4454 0.0002-0.001 0.0006-0.003 0.001-0.004a3.8874 2.7403 0 0 0 -1.4635 -0.2036zm0.0795 20.215a3.1713 2.6458 0 0 0 -0.0795 0.573 3.1713 2.6458 0 0 0 0.875 1.8206c-0.0009-0.003-0.002-0.005-0.003-0.008a38.115 38.115 0 0 1 -0.3984 -1.1327c-0.0134-0.0399-0.0265-0.0799-0.0398-0.1199a35.067 35.067 0 0 1 -0.353 -1.128 0.0232 0.0232 0 0 0 -0.002 -0.005zm-36.109 25.642c0.0188 0.04 0.0357 0.0795 0.0527 0.1193 0.007-0.0162 0.0139-0.0334 0.0207-0.05-0.0108-0.0219-0.032-0.0438-0.0733-0.0693zm-28.598-18.546c-0.5008 0.029-0.8773 0.5895-0.23 2.8319 1.2277 4.2522 4.2415 8.8946 5.6737 9.2726s-0.004-2.7308-2.0499-5.471c-2.046-2.7404-2.107-5.657-2.107-5.657s-0.759-0.945-1.185-0.9755a0.8672 0.8672 0 0 0 -0.1018 -0.001zm39.258 10.486c-2.0502-0.004-3.9935 0.2727-5.8675 0.7301-0.222 0.1167-0.4365 0.2352-0.6467 0.3545-0.1016 0.1222-0.1531 0.2346-0.1354 0.3328 0.2046 1.134 3.6828-0.8503 7.5701 1.2285 2.7326 1.4614 6.9308 6.994 9.5143 8.3436-3.8297-4.6925-6.9157-8.7982-10.435-10.99z"
         fill="#ace4ef"
         id="path112" />
      <path
         d="m110.18 112.41 21.445-12.796s9.9824-5.88 14.033-7.2163c4.0508-1.3363 30.67-9.6217 30.67-9.6217s-9.1143-2.6727-8.5356-2.6727c0.5786 0-34.721 10.691-34.721 10.691l-23.148 15.635-0.4331 1.637z"
         fill="#0085a6"
         id="path114" />
      <path
         d="m107.75 94.539 0.2894 10.156 1.4467 5.3454c15.27-8.3722 28.902-19.554 46.584-23.787 0 0 28.356-8.2853 36.457-5.078 8.1017 3.2071 4.9189-5.0782 4.9189-5.0782-9.1291-7.7818-19.34-14.564-37.615-13.898-28.056-3.9236-47.45 4.0601-52.082 32.34z"
         fill="#d03d29"
         id="path116" />
      <path
         d="m155.08 73.888s-17.8 5.4804-34.986 12.284c-5.9972 2.3741-9.6976 4.5398-11.98 6.3552-0.1292 0.6601-0.2522 1.328-0.3642 2.0117l0.0604 2.1296c12.985-7.0404 49.725-19.946 49.725-19.946zm19.721 3.1264c-1.4008-0.0222-3.8009 0.1571-7.6498 0.6532-15.62 2.0133-50.886 19.802-59.186 24.434l0.0699 2.4629c7.8733-5.1967 64.026-24.818 64.026-24.818s7.7424-2.6529 2.7396-2.7322z"
         fill="#bc251c"
         id="path118" />
      <path
         d="m124.82 32.532c-0.3435 0-0.7543 0.0858-1.2106 0.2294 0.018 1.067 0.4262 2.1761 1.0131 2.8732 0.8905 1.0575 2.1759 2.9895 3.218 4.2106 0.203-0.0577 0.3678-0.0966 0.452-0.0966 2.484-2.1973 2.4395-4.964-3.4725-7.2166z"
         fill="#ffdf82"
         id="path120" />
      <path
         d="m156.65 11.685c-5.2788 11.082-13.764 15.647-22.858 18.976 2.8205 5.9454 4.9957 11.682-2.8934 14.166-3.1375 0.921-5.5334 1.1914-5.7825-0.4223-0.5368-0.54-1.302-1.2889-2.3608-2.267-2.2506-2.0789 2.6461-6.6652 2.6461-6.6652-6.8274 2.3065-14.049 8.2504-21.122 12.829-7.1355 23.445-19.365 34.342-30.945 46.84l3.4899 4.1186c3.5054-2.8708 11.407-6.7117 28.336-11.387 39.692-10.961 59.128-12.095 59.128-12.095l47.921 16.652c-13.415-6.6134-26.066-25.556-27.965-29.94-2.4552-5.6697-13.409-12.603-13.409-15.249 0-2.6458-1.637-26.458-1.637-26.458l0.2322-0.4289c-0.0162-0.0385-0.033-0.0767-0.0492-0.1152l-4.051 4.2767c0.1655 14.123 8.5537 32.751-4.919 36.214-0.8444 0.6126-2.1383 1.1332-3.052 0.9285-0.5125 0.1667-1.3786 0.3491-1.8685 0.324-3.6827-0.189-7.1612-4.7248-4.706-7.3706 2.4551-2.6459 5.8652-42.926 5.8652-42.926z"
         fill="#4f605a"
         id="path122" />
      <path
         d="m107.66 92.401s29.262-13.244 57.094-10.691c14.082 1.2921 25.252 5.7582 28.666 8.728 6.7236 5.8484 10.106-0.7099 10.106-0.7099l14.467 5.0782s-38.483-17.373-43.402-18.442c-4.9189-1.0691-37.326-2.6727-49.478 0.8018s-50.925 18.976-50.925 18.976l3.4722 5.88 18.229-2.1382z"
         fill="#293a39"
         id="path124" />
      <path
         d="m172.33 18.778c-0.7183 0.5348-0.9982 1.5476 0.0666 3.4391 2.6598 4.7247 12.276 23.056 16.777 23.812 0.991 0.1665 2.0712 0.0118 3.1446-0.3602-7.8562-9.0218-17.761-22.112-19.988-26.891zm30.013 36.234c-0.4022 0.6669-0.605 1.462-0.484 2.357 0.4092 3.0238 13.708 35.152 15.549 34.018 0.4035-0.2484 0.5711-1.3412 0.5762-2.9217-5.0107-11.698-13.555-31.411-15.642-33.453z"
         fill="#ffdf82"
         id="path126" />
      <path
         d="m79.417 120.05c2.4112-0.2828 3.0322 1.1256 5.4434-1.698 0 0 1.0448-3.9051 7.6997-7.1124 6.655-3.2072 14.033-3.2072 14.033-3.2072l2.8934 6.1472s3.9062 11.894 2.17 16.571c-1.736 4.6772-3.7614 5.7463-3.7614 5.7463-0.0669-4.0965 1.555-8.3416-6.2209-11.76-1.6688-3.264-0.006-7.4749 3.3274-12.161-2.1024 5.2643-7.4046 6.7058-15.499 6.637-4.993 0.788-5.85 3.546-10.086 0.837z"
         fill="#d03d29"
         id="path128" />
      <path
         d="m101.92 108.46c-2.6573 0.408-6.0945 1.2065-9.3618 2.7811-6.655 3.2073-7.342 5.1282-7.342 5.1282-2.4111 2.8237-3.5436 3.3996-5.9548 3.6824 2.652 1.696 5.0156-0.085 7.5053-1.7123 3.4153-2.2322 3.1684-2.3094 4.069-2.3094 1.0606 0 6.758-4.4416 11.084-7.57zm0.8582 7.6532c-1.7465 3.2666-2.3427 6.2065-1.106 8.6253 5.278 2.3202 6.224 5.0215 6.3094 7.7985 0.1465-0.5196 0.2961-1.1058 0.4492-1.7658 2.2444-9.6748-2.3464-11.771-5.6526-14.658z"
         fill="#ea6644"
         id="path130" />
      <path
         d="m156.65 11.685s-5.4146 38.676-6.667 43.326c-0.3171 3.8485 1.825 6.7807 5.5078 6.9697 0.4899 0.025 0.9979-0.0628 1.5105-0.2295-2.269-0.5083-4.1742-1.6883-4.4023-5.967 6.314-20.294 5.2916-28.972 6.6552-41.427zm12.78 8.6677-0.2321 0.429s1.6369 23.812 1.6369 26.458c0 2.6459 3.4308 11.718 5.886 17.387 2.2543 5.2057 33.374 27.934 41.268 30.303l0.291-0.3912c-7.36-12.187-13.18-32.77-20.25-40.357-4.06-4.348-21.4-16.774-28.6-33.829zm-44.03 15.12s-4.8967 4.5863-2.6461 6.6652c1.0589 0.9781 1.824 1.727 2.3608 2.267-0.1687-1.0933 0.6473-3.051 2.889-6.2595z"
         fill="#88a19d"
         id="path132" />
      <g
         transform="matrix(.765 .08983 -.12783 .92883 197.75 -76.422)"
         id="g142">
        <ellipse
           rx="9.0872"
           ry="10.357"
           cy="153.94"
           cx="-66.684"
           fill="#ffdf82"
           id="ellipse134" />
        <ellipse
           rx="9.0872"
           ry="10.357"
           cy="153.68"
           cx="-68.02"
           fill="#fec72e"
           id="ellipse136" />
        <ellipse
           rx="7.0158"
           ry="8.1517"
           cy="153.27"
           cx="-67.543"
           fill="#e88e08"
           id="ellipse138" />
        <ellipse
           rx="6.6149"
           ry="8.0181"
           cy="153.84"
           cx="-68.022"
           fill="#fec72e"
           id="ellipse140" />
      </g>
      <path
         d="m94.764 135.64 10.62 6.1046 0.5037 4.907-6.1824 1.0152-13.727-9.541s2.2733-1.862 3.6517-2.2497c1.633-0.4593 5.1347-0.236 5.1347-0.236z"
         fill="#e88e08"
         id="path144" />
      <path
         d="m89.474 138.89c-0.386 0.0182-0.7748 0.3874-1.0953 1.447-0.7612 2.5159 1.2517 3.1756 1.7292 3.3134 1.5903 0.459 2.0723 0.1041 3.0137-1.0708l-1.8523-1.963-0.7071-1.0553c-0.3114-0.349-0.6977-0.6897-1.0881-0.6713z"
         fill="#00a0bf"
         id="path146" />
      <path
         d="m92.809 135.58c-0.7888 0.001-1.6834 0.0345-2.4283 0.1411l15.338 9.2866-0.3355-3.2688-10.62-6.1046s-0.8752-0.0559-1.9547-0.0543z"
         fill="#fec72e"
         id="path148" />
      <path
         d="m104.75 141.36a7.7607 7.7607 0 0 0 -1.0188 0.2915c-2.5597 0.9523-4.306 3.1532-4.504 5.6761l0.4779 0.334s7.7316 2.1414 8.4204 0.9072c0.5766-1.033-2.7423-6.8294-2.7423-6.8294z"
         fill="#ffdba7"
         id="path150" />
      <path
         d="m80.62 142.15a1.47 1.2027 0 0 0 -1.4702 1.2026 1.47 1.2027 0 0 0 1.4702 1.203 1.47 1.2027 0 0 0 1.4702 -1.203 1.47 1.2027 0 0 0 -1.4702 -1.2026zm3.9424 4.4101a2.4054 1.8375 0 0 0 -2.4055 1.8371 2.4054 1.8375 0 0 0 2.4055 1.8376 2.4054 1.8375 0 0 0 1.7746 -0.6c-0.5076-1.0594-0.883-1.9255-1.0553-2.3822a141.43 141.43 0 0 1 -0.2444 -0.6543 2.4054 1.8375 0 0 0 -0.4749 -0.0382zm-5.1118 2.0045a1.3698 1.5702 0 0 0 -1.3694 1.57 1.3698 1.5702 0 0 0 1.3694 1.5704 1.3698 1.5702 0 0 0 1.37 -1.5704 1.3698 1.5702 0 0 0 -1.37 -1.57zm10.525 7.4425a2.4388 2.0713 0 0 0 -2.0727 2.0453 2.4388 2.0713 0 0 0 2.4386 2.0712 2.4388 2.0713 0 0 0 2.2867 -1.3565c-0.8409-0.4767-1.7575-1.5018-2.6526-2.76z"
         fill="#4ec5de"
         id="path152" />
      <path
         d="m107.17 145.05a3.5492 3.0034 0 0 0 -1.175 0.2128 3.5492 3.0034 0 0 0 -2.1388 3.3924c2.0325 0.3954 4.1175 0.6322 4.4559 0.0259 0.2748-0.4925-0.383-2.092-1.142-3.6311z"
         fill="#293a39"
         id="path154" />
      <path
         d="m73.293 124.67s0.661-1.7554 2.1482-1.6027c1.4873 0.1526 3.3876 1.7553 3.3876 1.7553l-2.9744 1.4501z"
         fill="#b2d2cc"
         id="path156" />
      <path
         d="m198.92 167.58s-4.8123-2.0923-3.9443-0.2214 10.599 4.364 13.782 6.7695c3.1828 2.4054 10.127 12.294 11.284 11.76 1.1573-0.5346-2.3148-10.023-4.3402-11.092-2.0254-1.0691-6.7996-5.6127-16.782-7.2163z"
         fill="#ace4ef"
         id="path158" />
      <path
         d="m220.62 186.96s-0.5787 2.6726 1.1574 3.4744c1.736 0.8018 2.6041-0.8018 1.4467-1.8709-1.1573-1.069-2.604-1.6036-2.604-1.6036zm-36.897-20.46c-0.8967 0.0635-1.803 2.018-0.284 2.1517 1.5191 0.1336 2.3148-0.3341 1.5191-1.2695-0.3395-0.521-0.5722-0.9292-1.235-0.8822z"
         fill="#4ec5de"
         id="path160" />
      <path
         d="m186.04 172.21c-1.0418 1.096-0.885 2.406 0.3503 2.926 1.2354 0.5199 3.0814 0.053 4.1234-1.043s0.8853-2.4062-0.35-2.9263c-1.2355-0.5199-3.0818-0.0527-4.1237 1.0433zm9.26-4.7001c-0.7699 1.0668-0.5873 2.1599 0.4328 2.5908 1.056 0.4431 2.6822 0.0443 3.8002-0.9317-1.3259-0.5576-2.7343-1.1107-4.233-1.6591zm-2.4637 4.3398c-0.592 0.6228-0.3737 1.4214 0.4873 1.7838 0.861 0.3625 2.039 0.1515 2.6311-0.4713 0.5923-0.6228 0.3742-1.4216-0.487-1.784-0.8612-0.3625-2.0393-0.1514-2.6314 0.4715zm6.8613-1.0275c-0.4974 0.5232-0.081 1.2922 0.93 1.7177 1.0109 0.4254 2.2334 0.3462 2.7307-0.1769 0.4973-0.523 0.0811-1.292-0.9297-1.7175-1.0108-0.4257-2.2336-0.3465-2.731 0.1766zm7.6934 2.2909c-0.8051 0.8468-0.5778 1.9037 0.5076 2.3608 0.9132 0.383 2.171 0.226 3.0375-0.3796a75.546 75.546 0 0 0 -3.4617 -2.0636 2.3183 2.3183 0 0 0 -0.0834 0.0823zm0.4457 3.7242c-0.4735 0.4982-0.0988 1.2214 0.837 1.6153 0.9358 0.394 2.0784 0.3094 2.552-0.1888s0.0988-1.2213-0.8369-1.6153c-0.9359-0.3939-2.0785-0.3093-2.552 0.1888zm7.2434 2.1648c-0.8996 0.9465-0.7491 2.084 0.3362 2.5411 1.0686 0.4492 2.6483 0.0723 3.5574-0.8488-1.0367-0.7591-2.0751-1.5182-3.134-2.2762-0.2908 0.1645-0.5487 0.3627-0.7596 0.5839z"
         fill="#ace4ef"
         id="path162" />
      <path
         d="m140.02 188.9a2.5063 2.1734 0 0 0 -1.638 0.5302c0.269 0.5606 0.6408 1.1234 1.1519 1.681 0.5722 0.6245 1.2116 1.2114 1.892 1.7612a2.5063 2.1734 0 0 0 1.1004 -1.7989 2.5063 2.1734 0 0 0 -2.5063 -2.1735zm7.007 0.6615a2.046 1.9844 0 0 0 -2.0458 1.9843 2.046 1.9844 0 0 0 2.0459 1.9844 2.046 1.9844 0 0 0 2.0464 -1.9844 2.046 1.9844 0 0 0 -2.0464 -1.9843zm6.803 3.024a1.4833 1.5592 0 0 0 -1.4831 1.5592 1.4833 1.5592 0 0 0 1.483 1.559 1.4833 1.5592 0 0 0 1.4837 -1.559 1.4833 1.5592 0 0 0 -1.4837 -1.5591zm-3.6823 3.1182a1.8925 1.9371 0 0 0 -1.7746 1.2671c1.436 0.6408 2.6594 1.0993 3.5256 1.4a1.8925 1.9371 0 0 0 0.141 -0.7302 1.8925 1.9371 0 0 0 -1.892 -1.9369z"
         fill="#00a0bf"
         id="path164" />
      <ellipse
         rx="7.7958"
         ry="7.1343"
         cy="103.58"
         cx="140.4"
         fill="#fff"
         id="ellipse166" />
      <ellipse
         rx="7.2288"
         ry="7.0871"
         cy="102.4"
         cx="171.57"
         fill="#fff"
         id="ellipse168" />
      <path
         d="m170.54 96.815a4.4946 4.4353 0 0 0 -4.4946 4.435 4.4946 4.4353 0 0 0 4.4946 4.4352 4.4946 4.4353 0 0 0 4.4946 -4.4351 4.4946 4.4353 0 0 0 -4.4946 -4.4351zm-31.22 1.0357a4.4946 4.4353 0 0 0 -4.4946 4.4352 4.4946 4.4353 0 0 0 4.4946 4.435 4.4946 4.4353 0 0 0 4.4946 -4.435 4.4946 4.4353 0 0 0 -4.4946 -4.4352z"
         id="path170" />
      <path
         d="m140.35 95.674a7.966 7.426 0 0 0 -7.9659 7.4255 7.966 7.426 0 0 0 0.5706 2.7434 7.6667 6.5423 0 0 1 -0.2762 -1.7126 7.6667 6.5423 0 0 1 7.6664 -6.5421 7.6667 6.5423 0 0 1 7.6669 6.5421 7.6667 6.5423 0 0 1 -0.2779 1.7439 7.966 7.426 0 0 0 0.582 -2.7747 7.966 7.426 0 0 0 -7.966 -7.4255zm31.867-0.8525a7.32 6.6922 0.5027 0 0 -7.849 6.1593 7.32 6.6922 0.5027 0 0 0.0502 1.4061 7.2399 6.0024 2.5042 0 1 0.006 -0.2932 7.2399 6.0024 2.5042 0 1 7.7132 -5.4759 7.2399 6.0024 2.5042 0 1 6.7393 6.0106 7.32 6.6922 0.5027 0 0 0.0895 -0.6219 7.32 6.6922 0.5027 0 0 -6.7495 -7.185z"
         id="path172" />
      <path
         d="m105.96 152.52c-0.12 0.14-0.2342 0.2643-0.3514 0.3964-0.0517 0.0583-0.1065 0.1252-0.1577 0.1819 0.0483 0.071 0.1041 0.1363 0.1582 0.2026 0.1201-0.2624 0.2372-0.5233 0.3509-0.7809zm-3.7 3.361c-0.7377 0.4735-1.5631 0.8778-2.4232 1.2295-0.018 0.007-0.036 0.0149-0.0543 0.0222a22.327 22.327 0 0 1 -1.5818 0.5715c0.0004 1.0957 1.3052 1.9838 2.915 1.9839 0.329 0 0.6441-0.0386 0.939-0.107 0.6035-0.8115 1.1804-1.7234 1.7245-2.68-0.2936-0.4497-0.8277-0.8192-1.5193-1.02zm-3.7011 5.6018c-1.0497 0-1.9084 0.7494-1.9875 1.7002 0.5766-0.0725 1.209-0.2366 1.9172-0.491 0.4591-0.1649 0.9138-0.4278 1.3611-0.7694-0.348-0.2736-0.798-0.4397-1.2908-0.4398z"
         fill="#ace4ef"
         id="path174" />
    </g>
  </g>
  <g
     letter-spacing="0"
     font-weight="400"
     transform="translate(-2.618 -22.11)"
     word-spacing="0"
     stroke-width="2.2399"
     fill="#00a0bf"
     id="g198">
    <path
       inkscape:connector-curvature="0"
       id="path935"
       style="font-style:normal;font-variant:normal;font-weight:bold;font-stretch:normal;font-size:21.33333397px;line-height:1.25;font-family:Dosis;-inkscape-font-specification:'Dosis Bold';letter-spacing:0px;word-spacing:0px;fill:#00a0bf;fill-opacity:0.94117647;stroke:none;stroke-width:1.21643543"
       d="M 59.195833,52.670904 V 38.82557 q 0,-0.405333 0.362666,-0.64 0.362667,-0.234667 0.853334,-0.234667 h 7.594666 q 0.426667,0 0.640001,0.362667 0.234666,0.362667 0.234666,0.832 0,0.512 -0.234666,0.874667 -0.234667,0.362666 -0.640001,0.362666 h -6.037333 v 4.266667 h 3.242667 q 0.405333,0 0.64,0.341333 0.234666,0.32 0.234666,0.768 0,0.405334 -0.234666,0.746667 -0.213334,0.32 -0.64,0.32 h -3.242667 v 4.288 h 6.037333 q 0.405334,0 0.640001,0.362667 0.234666,0.362667 0.234666,0.874667 0,0.469333 -0.234666,0.832 -0.213334,0.362666 -0.640001,0.362666 h -7.594666 q -0.490667,0 -0.853334,-0.234666 -0.362666,-0.234667 -0.362666,-0.64 z" />
    <path
       inkscape:connector-curvature="0"
       id="path937"
       style="font-style:normal;font-variant:normal;font-weight:bold;font-stretch:normal;font-size:21.33333397px;line-height:1.25;font-family:Dosis;-inkscape-font-specification:'Dosis Bold';letter-spacing:0px;word-spacing:0px;fill:#00a0bf;fill-opacity:0.94117647;stroke:none;stroke-width:1.21643543"
       d="m 69.619833,49.364237 v -1.749333 q 0,-1.770667 1.109333,-3.050667 1.130667,-1.28 2.688,-1.28 0.938667,0 1.642667,0.469333 0.725333,0.469333 1.109333,1.152 v -6.549333 q 0,-0.384 0.384,-0.618667 0.405333,-0.234667 1.002667,-0.234667 0.597333,0 0.981333,0.234667 0.384,0.234667 0.384,0.618667 v 14.314667 q 0,0.341333 -0.405333,0.618666 -0.384,0.256 -0.96,0.256 -0.490667,0 -0.874667,-0.277333 -0.362667,-0.277333 -0.362667,-0.597333 v -0.618667 q -0.341333,0.682667 -1.173333,1.194667 -0.810667,0.490666 -1.792,0.490666 -1.472,0 -2.602667,-1.322666 -1.130666,-1.322667 -1.130666,-3.050667 z m 2.752,0 q 0,0.746667 0.554666,1.365333 0.554667,0.597334 1.301334,0.597334 0.746666,0 1.344,-0.576 0.597333,-0.597334 0.597333,-1.002667 v -2.133333 q 0,-0.853334 -0.597333,-1.386667 -0.576,-0.533334 -1.322667,-0.533334 -0.768,0 -1.322667,0.597334 -0.554666,0.576 -0.554666,1.322667 z" />
    <path
       inkscape:connector-curvature="0"
       id="path939"
       style="font-style:normal;font-variant:normal;font-weight:bold;font-stretch:normal;font-size:21.33333397px;line-height:1.25;font-family:Dosis;-inkscape-font-specification:'Dosis Bold';letter-spacing:0px;word-spacing:0px;fill:#00a0bf;fill-opacity:0.94117647;stroke:none;stroke-width:1.21643543"
       d="m 80.959167,49.406904 v -5.120001 q 0,-0.32 0.405333,-0.597333 0.426667,-0.277333 0.981333,-0.277333 0.533334,0 0.938667,0.277333 0.426667,0.277333 0.426667,0.597333 v 5.120001 q 0,0.746666 0.554666,1.344 0.554667,0.576 1.322667,0.576 0.768,0 1.301333,-0.576 0.554667,-0.597334 0.554667,-1.344 V 44.26557 q 0,-0.341333 0.405333,-0.597333 0.426667,-0.256 0.981334,-0.256 0.597333,0 0.981333,0.256 0.384,0.256 0.384,0.597333 v 5.141334 q 0,1.728 -1.365333,3.029333 -1.365334,1.301333 -3.242667,1.301333 -1.877333,0 -3.264,-1.301333 -1.365333,-1.301333 -1.365333,-3.029333 z" />
    <path
       inkscape:connector-curvature="0"
       id="path941"
       style="font-style:normal;font-variant:normal;font-weight:bold;font-stretch:normal;font-size:21.33333397px;line-height:1.25;font-family:Dosis;-inkscape-font-specification:'Dosis Bold';letter-spacing:0px;word-spacing:0px;fill:#00a0bf;fill-opacity:0.94117647;stroke:none;stroke-width:1.21643543"
       d="M 91.891166,49.364237 V 47.65757 q 0,-1.962667 1.152,-3.157333 1.152,-1.216 3.456,-1.216 1.450667,0 2.432,0.512 0.981333,0.512 0.981333,1.152 0,0.448 -0.32,0.896 -0.32,0.448 -0.768,0.448 -0.128,0 -0.768,-0.298667 -0.618666,-0.298667 -1.344,-0.298667 -2.069333,0 -2.069333,1.962667 v 1.706667 q 0,1.962667 2.090667,1.962667 0.725333,0 1.344,-0.32 0.618666,-0.32 0.789333,-0.32 0.512,0 0.832,0.426666 0.341334,0.426667 0.341334,0.874667 0,0.661333 -1.045334,1.216 -1.024,0.533333 -2.474667,0.533333 -2.325333,0 -3.477333,-1.194666 -1.152,-1.194667 -1.152,-3.178667 z" />
    <path
       inkscape:connector-curvature="0"
       id="path943"
       style="font-style:normal;font-variant:normal;font-weight:bold;font-stretch:normal;font-size:21.33333397px;line-height:1.25;font-family:Dosis;-inkscape-font-specification:'Dosis Bold';letter-spacing:0px;word-spacing:0px;fill:#00a0bf;fill-opacity:0.94117647;stroke:none;stroke-width:1.21643543"
       d="m 100.88517,50.900237 q 0,-1.728 1.28,-2.432 1.28,-0.704 3.69066,-0.704 h 0.87467 v -0.277333 q 0,-0.789334 -0.46933,-1.365334 -0.448,-0.597333 -1.408,-0.597333 -0.96,0 -1.64267,0.341333 -0.68267,0.32 -0.78933,0.32 -0.42667,0 -0.68267,-0.426667 -0.256,-0.426666 -0.256,-0.938666 0,-0.618667 1.088,-1.066667 1.10933,-0.469333 2.32533,-0.469333 2.32534,0 3.456,1.194666 1.13067,1.173334 1.13067,2.965334 v 5.226667 q 0,0.362666 -0.384,0.618666 -0.384,0.256 -0.96,0.256 -0.53333,0 -0.896,-0.256 -0.34133,-0.256 -0.34133,-0.618666 v -0.618667 q -1.472,1.685333 -3.24267,1.685333 -1.216,0 -2.00533,-0.725333 -0.768,-0.725333 -0.768,-2.112 z m 2.752,-0.362667 q 0,0.576 0.29866,0.874667 0.32,0.277333 0.832,0.277333 0.68267,0 1.32267,-0.64 0.64,-0.64 0.64,-1.408 v -0.448 h -0.32 q -1.30133,0 -2.048,0.277334 -0.72533,0.256 -0.72533,1.066666 z" />
    <path
       inkscape:connector-curvature="0"
       id="path945"
       style="font-style:normal;font-variant:normal;font-weight:bold;font-stretch:normal;font-size:21.33333397px;line-height:1.25;font-family:Dosis;-inkscape-font-specification:'Dosis Bold';letter-spacing:0px;word-spacing:0px;fill:#00a0bf;fill-opacity:0.94117647;stroke:none;stroke-width:1.21643543"
       d="M 111.52417,52.670904 V 44.26557 q 0,-0.384 0.36266,-0.618667 0.384,-0.234666 0.98134,-0.234666 0.53333,0 0.87466,0.234666 0.36267,0.234667 0.36267,0.618667 v 0.874667 q 0.34133,-0.746667 1.06667,-1.301334 0.72533,-0.554666 1.55733,-0.554666 h 0.66133 q 0.384,0 0.68267,0.362666 0.32,0.362667 0.32,0.832 0,0.490667 -0.32,0.853334 -0.29867,0.362666 -0.68267,0.362666 h -0.66133 q -0.98133,0 -1.728,0.874667 -0.72533,0.874667 -0.72533,2.282667 v 3.818667 q 0,0.32 -0.42667,0.597333 -0.42667,0.277333 -0.98133,0.277333 -0.576,0 -0.96,-0.256 -0.384,-0.277333 -0.384,-0.618666 z" />
    <path
       inkscape:connector-curvature="0"
       id="path947"
       style="font-style:normal;font-variant:normal;font-weight:bold;font-stretch:normal;font-size:21.33333397px;line-height:1.25;font-family:Dosis;-inkscape-font-specification:'Dosis Bold';letter-spacing:0px;word-spacing:0px;fill:#00a0bf;fill-opacity:0.94117647;stroke:none;stroke-width:1.21643543"
       d="M 119.5445,50.08957 V 39.742903 q 0,-0.362666 0.42667,-0.597333 0.42667,-0.256 0.93867,-0.256 0.55466,0 0.96,0.256 0.42666,0.234667 0.42666,0.597333 v 3.669334 h 2.51734 q 0.32,0 0.512,0.298666 0.192,0.298667 0.192,0.704 0,0.405334 -0.192,0.704 -0.192,0.298667 -0.512,0.298667 h -2.51734 v 4.672 q 0,0.618667 0.256,0.874667 0.27734,0.256 0.93867,0.256 h 0.832 q 0.55467,0 0.85333,0.341333 0.32,0.341334 0.32,0.810667 0,0.490667 -0.32,0.832 -0.29866,0.341333 -0.85333,0.341333 h -0.832 q -3.94667,0 -3.94667,-3.456 z" />
    <path
       inkscape:connector-curvature="0"
       id="path949"
       style="font-style:normal;font-variant:normal;font-weight:bold;font-stretch:normal;font-size:21.33333397px;line-height:1.25;font-family:Dosis;-inkscape-font-specification:'Dosis Bold';letter-spacing:0px;word-spacing:0px;fill:#00a0bf;fill-opacity:0.94117647;stroke:none;stroke-width:1.21643543"
       d="m 126.38517,50.900237 q 0,-1.728 1.28,-2.432 1.28,-0.704 3.69066,-0.704 h 0.87467 v -0.277333 q 0,-0.789334 -0.46933,-1.365334 -0.448,-0.597333 -1.408,-0.597333 -0.96,0 -1.64267,0.341333 -0.68267,0.32 -0.78933,0.32 -0.42667,0 -0.68267,-0.426667 -0.256,-0.426666 -0.256,-0.938666 0,-0.618667 1.088,-1.066667 1.10933,-0.469333 2.32533,-0.469333 2.32534,0 3.456,1.194666 1.13067,1.173334 1.13067,2.965334 v 5.226667 q 0,0.362666 -0.384,0.618666 -0.384,0.256 -0.96,0.256 -0.53333,0 -0.896,-0.256 -0.34133,-0.256 -0.34133,-0.618666 v -0.618667 q -1.472,1.685333 -3.24267,1.685333 -1.216,0 -2.00533,-0.725333 -0.768,-0.725333 -0.768,-2.112 z m 2.752,-0.362667 q 0,0.576 0.29866,0.874667 0.32,0.277333 0.832,0.277333 0.68267,0 1.32267,-0.64 0.64,-0.64 0.64,-1.408 v -0.448 h -0.32 q -1.30133,0 -2.048,0.277334 -0.72533,0.256 -0.72533,1.066666 z" />
    <path
       inkscape:connector-curvature="0"
       id="path951"
       style="font-style:normal;font-variant:normal;font-weight:bold;font-stretch:normal;font-size:21.33333397px;line-height:1.25;font-family:Dosis;-inkscape-font-specification:'Dosis Bold';letter-spacing:0px;word-spacing:0px;fill:#00a0bf;fill-opacity:0.94117647;stroke:none;stroke-width:1.21643543"
       d="M 137.0455,52.670904 V 38.356237 q 0,-0.384 0.36267,-0.618667 0.384,-0.234667 0.98133,-0.234667 0.59734,0 1.00267,0.234667 0.40533,0.234667 0.40533,0.618667 v 6.549333 q 0.36267,-0.682667 1.06667,-1.152 0.72533,-0.469333 1.664,-0.469333 1.55733,0 2.66667,1.28 1.13066,1.28 1.13066,3.050667 v 1.749333 q 0,1.728 -1.13066,3.050667 -1.13067,1.322666 -2.60267,1.322666 -0.96,0 -1.792,-0.490666 -0.832,-0.512 -1.17333,-1.194667 v 0.618667 q 0,0.32 -0.384,0.597333 -0.36267,0.277333 -0.85334,0.277333 -0.576,0 -0.96,-0.256 -0.384,-0.277333 -0.384,-0.618666 z m 2.752,-2.922667 q 0,0.405333 0.576,1.002667 0.59734,0.576 1.344,0.576 0.74667,0 1.30134,-0.597334 0.55466,-0.618666 0.55466,-1.365333 v -1.749333 q 0,-0.746667 -0.55466,-1.322667 -0.55467,-0.597334 -1.32267,-0.597334 -0.72533,0 -1.32267,0.533334 -0.576,0.533333 -0.576,1.386667 z" />
    <path
       inkscape:connector-curvature="0"
       id="path953"
       style="font-style:normal;font-variant:normal;font-weight:bold;font-stretch:normal;font-size:21.33333397px;line-height:1.25;font-family:Dosis;-inkscape-font-specification:'Dosis Bold';letter-spacing:0px;word-spacing:0px;fill:#00a0bf;fill-opacity:0.94117647;stroke:none;stroke-width:1.21643543"
       d="M 148.2995,52.670904 V 38.356237 q 0,-0.384 0.36267,-0.618667 0.384,-0.234667 1.00266,-0.234667 0.576,0 0.98134,0.234667 0.40533,0.234667 0.40533,0.618667 v 14.314667 q 0,0.32 -0.42667,0.597333 -0.40533,0.277333 -0.96,0.277333 -0.576,0 -0.98133,-0.256 -0.384,-0.277333 -0.384,-0.618666 z" />
    <path
       inkscape:connector-curvature="0"
       id="path955"
       style="font-style:normal;font-variant:normal;font-weight:bold;font-stretch:normal;font-size:21.33333397px;line-height:1.25;font-family:Dosis;-inkscape-font-specification:'Dosis Bold';letter-spacing:0px;word-spacing:0px;fill:#00a0bf;fill-opacity:0.94117647;stroke:none;stroke-width:1.21643543"
       d="m 152.9735,49.364237 v -1.813333 q 0,-1.749334 1.36533,-3.008001 1.36534,-1.258666 3.30667,-1.258666 1.81333,0 3.09333,1.152 1.30134,1.130666 1.30134,2.858667 0,0.64 -0.17067,1.066666 -0.14933,0.405334 -0.49067,0.576 -0.32,0.170667 -0.59733,0.213334 -0.27733,0.04267 -0.72533,0.04267 h -4.33067 v 0.32 q 0,0.917334 0.68267,1.493334 0.68266,0.554666 1.81333,0.554666 0.81067,0 1.6,-0.405333 0.78933,-0.405333 1.024,-0.405333 0.448,0 0.74667,0.426666 0.29866,0.405334 0.29866,0.789334 0,0.597333 -1.088,1.194666 -1.06666,0.576 -2.66666,0.576 -2.28267,0 -3.73334,-1.194666 -1.42933,-1.216 -1.42933,-3.178667 z m 2.752,-1.792 h 3.11467 q 0.34133,0 0.46933,-0.106667 0.14933,-0.128 0.14933,-0.469333 0,-0.746667 -0.55466,-1.216 -0.53334,-0.469334 -1.32267,-0.469334 -0.74667,0 -1.30133,0.469334 -0.55467,0.448 -0.55467,1.194667 z" />
    <path
       inkscape:connector-curvature="0"
       id="path904"
       style="font-style:normal;font-variant:normal;font-weight:normal;font-stretch:normal;font-size:13.33333302px;line-height:1.25;font-family:Montserrat;-inkscape-font-specification:Montserrat;letter-spacing:0px;word-spacing:0px;fill:#4f605a;fill-opacity:1;stroke:none;stroke-width:0.79573494"
       d="m 65.776961,61.83895 c -1.16,0 -2.133333,0.506667 -2.706666,1.44 v -1.386666 h -0.906667 v 9.599999 h 0.946667 v -3.906666 c 0.586666,0.906666 1.546666,1.386666 2.666666,1.386666 2,0 3.493333,-1.44 3.493333,-3.573333 0,-2.12 -1.493333,-3.56 -3.493333,-3.56 z m -0.06667,6.293333 c -1.493333,0 -2.613333,-1.093333 -2.613333,-2.733333 0,-1.626666 1.12,-2.733333 2.613333,-2.733333 1.48,0 2.613334,1.106667 2.613334,2.733333 0,1.64 -1.133334,2.733333 -2.613334,2.733333 z" />
    <path
       inkscape:connector-curvature="0"
       id="path906"
       style="font-style:normal;font-variant:normal;font-weight:normal;font-stretch:normal;font-size:13.33333302px;line-height:1.25;font-family:Montserrat;-inkscape-font-specification:Montserrat;letter-spacing:0px;word-spacing:0px;fill:#4f605a;fill-opacity:1;stroke:none;stroke-width:0.79573494"
       d="m 74.066753,68.972283 c 2.053333,0 3.559999,-1.493333 3.559999,-3.573333 0,-2.08 -1.506666,-3.56 -3.559999,-3.56 -2.053334,0 -3.573334,1.48 -3.573334,3.56 0,2.08 1.52,3.573333 3.573334,3.573333 z m 0,-0.84 c -1.493334,0 -2.613334,-1.093333 -2.613334,-2.733333 0,-1.64 1.12,-2.733333 2.613334,-2.733333 1.493333,0 2.599999,1.093333 2.599999,2.733333 0,1.64 -1.106666,2.733333 -2.599999,2.733333 z" />
    <path
       inkscape:connector-curvature="0"
       id="path908"
       style="font-style:normal;font-variant:normal;font-weight:normal;font-stretch:normal;font-size:13.33333302px;line-height:1.25;font-family:Montserrat;-inkscape-font-specification:Montserrat;letter-spacing:0px;word-spacing:0px;fill:#4f605a;fill-opacity:1;stroke:none;stroke-width:0.79573494"
       d="M 80.466127,63.265617 V 61.892284 H 79.55946 v 7.013333 h 0.946667 v -3.573333 c 0,-1.653334 0.893333,-2.586667 2.36,-2.586667 0.06667,0 0.146666,0.01333 0.226666,0.01333 v -0.92 c -1.293333,0 -2.186666,0.493334 -2.626666,1.426667 z" />
    <path
       inkscape:connector-curvature="0"
       id="path910"
       style="font-style:normal;font-variant:normal;font-weight:normal;font-stretch:normal;font-size:13.33333302px;line-height:1.25;font-family:Montserrat;-inkscape-font-specification:Montserrat;letter-spacing:0px;word-spacing:0px;fill:#4f605a;fill-opacity:1;stroke:none;stroke-width:0.79573494"
       d="m 88.466335,67.79895 c -0.266667,0.24 -0.653333,0.36 -1.04,0.36 -0.786667,0 -1.213333,-0.453333 -1.213333,-1.28 v -4.186666 h 2.133333 v -0.8 H 86.213002 V 60.35895 h -0.946667 v 1.533334 h -1.253333 v 0.8 h 1.253333 v 4.239999 c 0,1.293334 0.733333,2.04 2.053333,2.04 0.546667,0 1.106667,-0.16 1.48,-0.493333 z" />
    <path
       inkscape:connector-curvature="0"
       id="path912"
       style="font-style:normal;font-variant:normal;font-weight:normal;font-stretch:normal;font-size:13.33333302px;line-height:1.25;font-family:Montserrat;-inkscape-font-specification:Montserrat;letter-spacing:0px;word-spacing:0px;fill:#4f605a;fill-opacity:1;stroke:none;stroke-width:0.79573494"
       d="m 92.976336,61.83895 c -1.106666,0 -2.146666,0.346667 -2.853333,0.946667 l 0.426667,0.706667 c 0.573333,-0.506667 1.426666,-0.826667 2.333333,-0.826667 1.306666,0 1.986666,0.653333 1.986666,1.853333 v 0.426667 h -2.226666 c -2.013333,0 -2.706667,0.906666 -2.706667,1.986666 0,1.213334 0.973334,2.04 2.56,2.04 1.16,0 1.986667,-0.44 2.413333,-1.16 v 1.093334 h 0.906667 V 64.55895 c 0,-1.813333 -1.026667,-2.72 -2.84,-2.72 z m -0.333333,6.386667 c -1.12,0 -1.773333,-0.506667 -1.773333,-1.32 0,-0.72 0.44,-1.253333 1.8,-1.253333 h 2.199999 v 1.146666 c -0.373333,0.92 -1.16,1.426667 -2.226666,1.426667 z" />
    <path
       inkscape:connector-curvature="0"
       id="path914"
       style="font-style:normal;font-variant:normal;font-weight:normal;font-stretch:normal;font-size:13.33333302px;line-height:1.25;font-family:Montserrat;-inkscape-font-specification:Montserrat;letter-spacing:0px;word-spacing:0px;fill:#4f605a;fill-opacity:1;stroke:none;stroke-width:0.79573494"
       d="m 98.867585,60.35895 c 0.4,0 0.693333,-0.306666 0.693333,-0.693333 0,-0.36 -0.306666,-0.653333 -0.693333,-0.653333 -0.386667,0 -0.693333,0.306666 -0.693333,0.666666 0,0.373334 0.306666,0.68 0.693333,0.68 z m -0.48,8.546667 h 0.946667 v -7.013333 h -0.946667 z" />
    <path
       inkscape:connector-curvature="0"
       id="path916"
       style="font-style:normal;font-variant:normal;font-weight:normal;font-stretch:normal;font-size:13.33333302px;line-height:1.25;font-family:Montserrat;-inkscape-font-specification:Montserrat;letter-spacing:0px;word-spacing:0px;fill:#4f605a;fill-opacity:1;stroke:none;stroke-width:0.79573494"
       d="m 101.98133,68.905617 h 0.94667 v -9.893333 h -0.94667 z" />
    <path
       inkscape:connector-curvature="0"
       id="path918"
       style="font-style:normal;font-variant:normal;font-weight:normal;font-stretch:normal;font-size:13.33333302px;line-height:1.25;font-family:Montserrat;-inkscape-font-specification:Montserrat;letter-spacing:0px;word-spacing:0px;fill:#4f605a;fill-opacity:1;stroke:none;stroke-width:0.79573494"
       d="m 111.38467,59.745617 c 0.4,0 0.77333,0.12 1.04,0.346667 l 0.32,-0.706667 c -0.34667,-0.293333 -0.88,-0.44 -1.4,-0.44 -1.37334,0 -2.12,0.826667 -2.12,2.08 v 0.866667 h -1.25334 v 0.8 h 1.25334 v 6.213333 h 0.94666 v -6.213333 h 2.13334 v -0.8 h -2.16 v -0.826667 c 0,-0.866667 0.42666,-1.32 1.24,-1.32 z" />
    <path
       inkscape:connector-curvature="0"
       id="path920"
       style="font-style:normal;font-variant:normal;font-weight:normal;font-stretch:normal;font-size:13.33333302px;line-height:1.25;font-family:Montserrat;-inkscape-font-specification:Montserrat;letter-spacing:0px;word-spacing:0px;fill:#4f605a;fill-opacity:1;stroke:none;stroke-width:0.79573494"
       d="m 115.91904,61.83895 c -1.10666,0 -2.14666,0.346667 -2.85333,0.946667 l 0.42667,0.706667 c 0.57333,-0.506667 1.42666,-0.826667 2.33333,-0.826667 1.30667,0 1.98667,0.653333 1.98667,1.853333 v 0.426667 h -2.22667 c -2.01333,0 -2.70667,0.906666 -2.70667,1.986666 0,1.213334 0.97334,2.04 2.56,2.04 1.16,0 1.98667,-0.44 2.41334,-1.16 v 1.093334 h 0.90666 V 64.55895 c 0,-1.813333 -1.02666,-2.72 -2.84,-2.72 z m -0.33333,6.386667 c -1.12,0 -1.77333,-0.506667 -1.77333,-1.32 0,-0.72 0.44,-1.253333 1.8,-1.253333 h 2.2 v 1.146666 c -0.37334,0.92 -1.16,1.426667 -2.22667,1.426667 z" />
    <path
       inkscape:connector-curvature="0"
       id="path922"
       style="font-style:normal;font-variant:normal;font-weight:normal;font-stretch:normal;font-size:13.33333302px;line-height:1.25;font-family:Montserrat;-inkscape-font-specification:Montserrat;letter-spacing:0px;word-spacing:0px;fill:#4f605a;fill-opacity:1;stroke:none;stroke-width:0.79573494"
       d="m 130.07696,61.83895 c -1.26667,0 -2.26667,0.573334 -2.77333,1.48 -0.42667,-0.986666 -1.33334,-1.48 -2.49334,-1.48 -1.17333,0 -2.08,0.493334 -2.57333,1.333334 v -1.28 h -0.90667 v 7.013333 h 0.94667 v -3.68 c 0,-1.6 0.92,-2.533333 2.34667,-2.533333 1.28,0 2.02666,0.76 2.02666,2.24 v 3.973333 h 0.94667 v -3.68 c 0,-1.6 0.90667,-2.533333 2.34667,-2.533333 1.26666,0 2.01333,0.76 2.01333,2.24 v 3.973333 h 0.94667 V 64.83895 c 0,-2.013333 -1.12,-3 -2.82667,-3 z" />
    <path
       inkscape:connector-curvature="0"
       id="path924"
       style="font-style:normal;font-variant:normal;font-weight:normal;font-stretch:normal;font-size:13.33333302px;line-height:1.25;font-family:Montserrat;-inkscape-font-specification:Montserrat;letter-spacing:0px;word-spacing:0px;fill:#4f605a;fill-opacity:1;stroke:none;stroke-width:0.79573494"
       d="m 135.95092,60.35895 c 0.4,0 0.69333,-0.306666 0.69333,-0.693333 0,-0.36 -0.30667,-0.653333 -0.69333,-0.653333 -0.38667,0 -0.69334,0.306666 -0.69334,0.666666 0,0.373334 0.30667,0.68 0.69334,0.68 z m -0.48,8.546667 h 0.94666 v -7.013333 h -0.94666 z" />
    <path
       inkscape:connector-curvature="0"
       id="path926"
       style="font-style:normal;font-variant:normal;font-weight:normal;font-stretch:normal;font-size:13.33333302px;line-height:1.25;font-family:Montserrat;-inkscape-font-specification:Montserrat;letter-spacing:0px;word-spacing:0px;fill:#4f605a;fill-opacity:1;stroke:none;stroke-width:0.79573494"
       d="m 139.06467,68.905617 h 0.94666 v -9.893333 h -0.94666 z" />
    <path
       inkscape:connector-curvature="0"
       id="path928"
       style="font-style:normal;font-variant:normal;font-weight:normal;font-stretch:normal;font-size:13.33333302px;line-height:1.25;font-family:Montserrat;-inkscape-font-specification:Montserrat;letter-spacing:0px;word-spacing:0px;fill:#4f605a;fill-opacity:1;stroke:none;stroke-width:0.79573494"
       d="m 142.65842,68.905617 h 0.94666 v -9.893333 h -0.94666 z" />
    <path
       inkscape:connector-curvature="0"
       id="path930"
       style="font-style:normal;font-variant:normal;font-weight:normal;font-stretch:normal;font-size:13.33333302px;line-height:1.25;font-family:Montserrat;-inkscape-font-specification:Montserrat;letter-spacing:0px;word-spacing:0px;fill:#4f605a;fill-opacity:1;stroke:none;stroke-width:0.79573494"
       d="m 152.37217,65.39895 c 0,-2.106666 -1.42667,-3.56 -3.4,-3.56 -1.97334,0 -3.42667,1.48 -3.42667,3.56 0,2.08 1.49333,3.573333 3.68,3.573333 1.10667,0 2.08,-0.4 2.70667,-1.146666 l -0.53334,-0.613334 c -0.53333,0.613334 -1.29333,0.92 -2.14666,0.92 -1.53334,0 -2.65334,-0.973333 -2.76,-2.439999 h 5.86666 c 0,-0.106667 0.0133,-0.213334 0.0133,-0.293334 z m -3.4,-2.746666 c 1.37333,0 2.37333,0.96 2.49333,2.333333 h -4.97333 c 0.12,-1.373333 1.12,-2.333333 2.48,-2.333333 z" />
    <path
       inkscape:connector-curvature="0"
       id="path932"
       style="font-style:normal;font-variant:normal;font-weight:normal;font-stretch:normal;font-size:13.33333302px;line-height:1.25;font-family:Montserrat;-inkscape-font-specification:Montserrat;letter-spacing:0px;word-spacing:0px;fill:#4f605a;fill-opacity:1;stroke:none;stroke-width:0.79573494"
       d="m 156.17904,68.972283 c 1.82667,0 2.89334,-0.786666 2.89334,-2 0,-2.693333 -4.54667,-1.266666 -4.54667,-3.159999 0,-0.666667 0.56,-1.16 1.82667,-1.16 0.72,0 1.45333,0.173333 2.06666,0.6 l 0.41334,-0.76 c -0.58667,-0.4 -1.57334,-0.653334 -2.48,-0.653334 -1.78667,0 -2.77334,0.853334 -2.77334,2 0,2.773333 4.54667,1.333334 4.54667,3.16 0,0.693333 -0.54667,1.146667 -1.88,1.146667 -0.98667,0 -1.93333,-0.346667 -2.49333,-0.786667 l -0.42667,0.746667 c 0.57333,0.493333 1.69333,0.866666 2.85333,0.866666 z" />
  </g>
</svg>
