<?xml version="1.0" encoding="iso-8859-1"?>
<!-- Generator: Adobe Illustrator 19.0.0, SVG Export Plug-In . SVG Version: 6.00 Build 0)  -->
<svg version="1.1" id="Layer_1" xmlns="http://www.w3.org/2000/svg" xmlns:xlink="http://www.w3.org/1999/xlink" x="0px" y="0px"
	 viewBox="0 0 512 512" style="enable-background:new 0 0 512 512;" xml:space="preserve">
<path style="fill:#FFDC64;" d="M512,48.181L3.481,311.208c-5.975,3.091-3.778,12.123,2.95,12.123h138.703l48.884,114.061
	c2.756,6.432,11.41,7.532,15.688,1.995l62.182-80.47L426.916,462.27c5.514,3.677,12.988,0.47,14.123-6.06L512,48.181z"/>
<path style="fill:#FFC850;" d="M145.133,323.331l48.884,114.061c2.756,6.432,11.41,7.532,15.687,1.995L512,48.181L145.133,323.331z"
	/>
<path style="fill:#E6B950;" d="M185.535,417.602l8.481,19.79c2.756,6.432,11.41,7.532,15.688,1.995L512,48.181L185.535,417.602z"/>
<g>
</g>
<g>
</g>
<g>
</g>
<g>
</g>
<g>
</g>
<g>
</g>
<g>
</g>
<g>
</g>
<g>
</g>
<g>
</g>
<g>
</g>
<g>
</g>
<g>
</g>
<g>
</g>
<g>
</g>
</svg>
