<?xml version="1.0" encoding="UTF-8" standalone="no"?>
<!-- Generator: Adobe Illustrator 19.0.0, SVG Export Plug-In . SVG Version: 6.00 Build 0)  -->

<svg
   xmlns:dc="http://purl.org/dc/elements/1.1/"
   xmlns:cc="http://creativecommons.org/ns#"
   xmlns:rdf="http://www.w3.org/1999/02/22-rdf-syntax-ns#"
   xmlns:svg="http://www.w3.org/2000/svg"
   xmlns="http://www.w3.org/2000/svg"
   xmlns:sodipodi="http://sodipodi.sourceforge.net/DTD/sodipodi-0.dtd"
   xmlns:inkscape="http://www.inkscape.org/namespaces/inkscape"
   version="1.1"
   id="Layer_1"
   x="0px"
   y="0px"
   viewBox="0 0 512 512"
   style="enable-background:new 0 0 512 512;"
   xml:space="preserve"
   sodipodi:docname="schoolbook.svg"
   inkscape:version="0.92.3 (unknown)"><metadata
   id="metadata51"><rdf:RDF><cc:Work
       rdf:about=""><dc:format>image/svg+xml</dc:format><dc:type
         rdf:resource="http://purl.org/dc/dcmitype/StillImage" /></cc:Work></rdf:RDF></metadata><defs
   id="defs49" /><sodipodi:namedview
   pagecolor="#ffffff"
   bordercolor="#666666"
   borderopacity="1"
   objecttolerance="10"
   gridtolerance="10"
   guidetolerance="10"
   inkscape:pageopacity="0"
   inkscape:pageshadow="2"
   inkscape:window-width="1920"
   inkscape:window-height="1031"
   id="namedview47"
   showgrid="false"
   inkscape:zoom="0.4609375"
   inkscape:cx="-197.42373"
   inkscape:cy="256"
   inkscape:window-x="0"
   inkscape:window-y="25"
   inkscape:window-maximized="1"
   inkscape:current-layer="Layer_1" />
<path
   style="fill:#039be5"
   d="M432.552,512H79.448c-9.751,0-17.655-7.904-17.655-17.655V26.483c0-9.751,7.904-17.655,17.655-17.655  h353.103c9.751,0,17.655,7.904,17.655,17.655v467.862C450.207,504.095,442.302,512,432.552,512z"
   id="path2" />
<path
   style="fill:#0277bd"
   d="M97.103,494.345L97.103,494.345c-4.875,0-8.828-3.953-8.828-8.828V35.31  c0-4.875,3.953-8.828,8.828-8.828l0,0c4.875,0,8.828,3.953,8.828,8.828v450.207C105.931,490.392,101.978,494.345,97.103,494.345z"
   id="path4" />
<path
   style="fill:#FFFFFF;"
   d="M370.759,247.172H185.379c-9.751,0-17.655-7.904-17.655-17.655v-70.621  c0-9.751,7.904-17.655,17.655-17.655h185.379c9.751,0,17.655,7.904,17.655,17.655v70.621  C388.414,239.268,380.509,247.172,370.759,247.172z"
   id="path6" />
<g
   id="g12">
	<path
   style="fill:#707487;"
   d="M326.621,185.379H220.69c-4.875,0-8.828-3.953-8.828-8.828l0,0c0-4.875,3.953-8.828,8.828-8.828   h105.931c4.875,0,8.828,3.953,8.828,8.828l0,0C335.448,181.427,331.496,185.379,326.621,185.379z"
   id="path8" />
	<path
   style="fill:#707487;"
   d="M344.276,220.69H203.034c-4.875,0-8.828-3.953-8.828-8.828l0,0c0-4.875,3.953-8.828,8.828-8.828   h141.241c4.875,0,8.828,3.953,8.828,8.828l0,0C353.103,216.737,349.151,220.69,344.276,220.69z"
   id="path10" />
</g>
<path
   style="fill:#f6be1a"
   d="M132.644,82.237l17.425-11.616l17.425,11.616c3.872,2.582,9.058-0.194,9.058-4.847V8.828  c0-4.875-3.953-8.828-8.828-8.828h-35.31c-4.875,0-8.828,3.953-8.828,8.828v68.562C123.586,82.042,128.772,84.819,132.644,82.237z"
   id="path14" />
<g
   id="g16">
</g>
<g
   id="g18">
</g>
<g
   id="g20">
</g>
<g
   id="g22">
</g>
<g
   id="g24">
</g>
<g
   id="g26">
</g>
<g
   id="g28">
</g>
<g
   id="g30">
</g>
<g
   id="g32">
</g>
<g
   id="g34">
</g>
<g
   id="g36">
</g>
<g
   id="g38">
</g>
<g
   id="g40">
</g>
<g
   id="g42">
</g>
<g
   id="g44">
</g>
</svg>