<?xml version="1.0" encoding="iso-8859-1"?>
<!-- Generator: Adobe Illustrator 19.0.0, SVG Export Plug-In . SVG Version: 6.00 Build 0)  -->
<svg version="1.1" id="Capa_1" xmlns="http://www.w3.org/2000/svg" xmlns:xlink="http://www.w3.org/1999/xlink" x="0px" y="0px"
	 viewBox="0 0 512 512" style="enable-background:new 0 0 512 512;" xml:space="preserve">
<path style="fill:#666666;" d="M337.68,58.877V19.449c0-10.716-8.686-19.402-19.402-19.402s-19.402,8.686-19.402,19.402v39.428
	C316.21,58.877,321.492,58.877,337.68,58.877z"/>
<path style="fill:#5A5B5B;" d="M327.978,2.663c-12.802-7.415-29.104,1.762-29.104,16.785v39.428c8.442,0,14.026,0,19.402,0V19.448
	C318.277,12.271,322.184,6.018,327.978,2.663z"/>
<path style="fill:#666666;" d="M355.851,112.445c-23.673,0-52.337,0-76.025,0c-4.37,0-7.835,3.817-7.571,8.336l5.211,91.311
	c9.668,0,69.649,0,81.891,0c0.008-0.153,4.94-90.285,4.947-90.4C364.564,116.668,360.705,112.445,355.851,112.445z"/>
<path style="fill:#5A5B5B;" d="M302.145,112.445c-7.706,0-15.238,0-22.32,0c-4.37,0-7.835,3.817-7.571,8.336l5.211,91.311
	c3.174,0,11.77,0,22.32,0l-5.211-91.311C294.309,116.261,297.776,112.445,302.145,112.445z"/>
<path style="fill:#E6E6E6;" d="M120.708,0.047H47.567c-6.799,0-12.362,5.563-12.362,12.362v199.684h97.864V12.409
	C133.07,5.609,127.506,0.047,120.708,0.047z"/>
<path style="fill:#CCCCCC;" d="M73.32,0.047H47.567c-6.799,0-12.362,5.563-12.362,12.362v199.684h25.754V12.408
	C60.958,5.609,66.522,0.047,73.32,0.047z"/>
<path style="fill:#E6E6E6;" d="M464.764,76.872c-49.108,0.819-51.229-1.868-58.059,2.502L432.597,5.24
	c2.489-6.925,12.283-6.925,14.771,0l25.892,74.133C470.799,77.799,467.887,76.872,464.764,76.872z"/>
<path style="fill:#CCCCCC;" d="M452.758,20.673L447.368,5.24c-2.489-6.925-12.283-6.925-14.771,0l-25.892,74.133
	c4.889-3.128,7.369-2.64,26.393-2.411L452.758,20.673z"/>
<path style="fill:#70B5E8;" d="M415.201,211.063h49.564c8.723,0,15.861-7.137,15.861-15.861V90.672
	c0-8.723-7.137-15.861-15.861-15.861h-49.564c-8.723,0-15.861,7.137-15.861,15.861v104.531
	C399.34,203.925,406.477,211.063,415.201,211.063z"/>
<path style="fill:#5DABDB;" d="M425.094,195.201V90.672c0-8.723,7.137-15.861,15.861-15.861h-25.754
	c-8.723,0-15.861,7.137-15.861,15.861v104.53c0,8.723,7.137,15.861,15.861,15.861h25.754
	C432.231,211.063,425.094,203.925,425.094,195.201z"/>
<path style="fill:#A2DAF9;" d="M439.982,182.75c-4.267,0-7.726-3.459-7.726-7.726V109.82c0-4.268,3.459-7.726,7.726-7.726
	c4.267,0,7.726,3.459,7.726,7.726v65.204C447.709,179.292,444.249,182.75,439.982,182.75z"/>
<path style="fill:#B3B3B3;" d="M460.269,42.177L447.368,5.24c-2.489-6.925-12.283-6.925-14.771,0l-12.901,36.937H460.269z"/>
<path style="fill:#A2A2A3;" d="M445.248,42.177l7.51-21.504l-5.39-15.433c-0.311-0.866-0.736-1.623-1.247-2.273
	c-3.065-3.896-9.212-3.896-12.277,0c-0.511,0.649-0.936,1.407-1.247,2.273l-12.901,36.937H445.248z"/>
<rect x="15.581" y="224.4" style="fill:#C69C52;" width="481.427" height="273.235"/>
<g>
	<rect x="15.581" y="224.4" style="fill:#AD8338;" width="35.426" height="273.235"/>
	<path style="fill:#AD8338;" d="M497.61,483.268c-15.613,0-463.513,0-483.222,0c-7.934,0-14.366,6.431-14.366,14.366
		c0,7.934,6.431,14.366,14.366,14.366c16.662,0,454.818,0,483.222,0c7.934,0,14.366-6.431,14.366-14.366
		C511.976,489.7,505.544,483.268,497.61,483.268z"/>
	<path style="fill:#AD8338;" d="M497.61,392.189c-25.398,0-465.799,0-483.222,0c-7.934,0-14.366,6.431-14.366,14.366
		s6.431,14.366,14.366,14.366c16.662,0,454.818,0,483.222,0c7.934,0,14.366-6.431,14.366-14.366S505.544,392.189,497.61,392.189z"/>
	<path style="fill:#AD8338;" d="M497.61,301.111c-26.269,0-466.123,0-483.222,0c-7.934,0-14.366,6.431-14.366,14.366
		c0,7.934,6.431,14.366,14.366,14.366c27.507,0,465.125,0,483.222,0c7.934,0,14.366-6.431,14.366-14.366
		C511.976,307.542,505.544,301.111,497.61,301.111z"/>
</g>
<path style="fill:#F7CF9C;" d="M207.532,5.667c-3.311-7.495-12.431-7.495-15.742,0l-28.184,63.802v29.068h72.111V69.469
	L207.532,5.667z"/>
<path style="fill:#EABC8B;" d="M208.675,8.255l-1.143-2.588c-3.021-6.836-12.722-6.836-15.742,0l-28.184,63.802v29.068h18.027
	c0.541-19.722-1.48-25.718,2.498-34.723L208.675,8.255z"/>
<path style="fill:#666666;" d="M177.667,37.64l14.124-31.973c3.311-7.495,12.431-7.495,15.742,0l14.124,31.973
	C208.15,42.954,191.39,43.039,177.667,37.64z"/>
<path style="fill:#5A5B5B;" d="M208.675,8.255l-1.143-2.588c-3.021-6.836-12.722-6.836-15.742,0
	c-3.555,8.047-12.17,27.551-14.124,31.973c5.139,2.021,10.702,3.273,16.363,3.77L208.675,8.255z"/>
<path style="fill:#FFB70D;" d="M202.667,79.44c-1.425-2.143-4.586-2.143-6.01,0c-9.86,14.828-33.05,7.833-33.05-9.969
	c0,14.47,0,128.179,0,142.622c7.247,0,64.843,0,72.111,0c0-14.399,0-128.167,0-142.622C235.717,87.273,212.529,94.269,202.667,79.44
	z"/>
<path style="fill:#F7A808;" d="M188.526,86.127L188.526,86.127c-0.232,0.089-0.744,0.317-1.715,0.608l0,0l-0.002,0.001
	c-11.58,3.468-23.202-5.272-23.202-17.265v142.622c9.147,0,33.212,0,36.056,0V77.833C196.057,77.833,196.291,82.887,188.526,86.127z
	"/>
<path style="fill:#EA990A;" d="M163.606,69.469v142.622c4.099,0,11.19,0,18.027,0V87.497
	C172.003,87.503,163.606,79.665,163.606,69.469z"/>
<g>
	<path style="fill:#BAB9B9;" d="M35.205,50.435h23.88c4.267,0,7.726-3.459,7.726-7.726s-3.459-7.726-7.726-7.726h-23.88V50.435z"/>
	<path style="fill:#BAB9B9;" d="M66.811,128.034c0-4.268-3.459-7.726-7.726-7.726h-23.88v15.453h23.88
		C63.352,135.761,66.811,132.302,66.811,128.034z"/>
	<path style="fill:#BAB9B9;" d="M59.085,77.646h-23.88v15.453h23.88c4.267,0,7.726-3.459,7.726-7.726
		C66.811,81.104,63.352,77.646,59.085,77.646z"/>
	<path style="fill:#BAB9B9;" d="M66.811,170.697c0-4.268-3.459-7.726-7.726-7.726h-23.88v15.453h23.88
		C63.352,178.424,66.811,174.965,66.811,170.697z"/>
</g>
<path style="fill:#F2F2F2;" d="M105.253,0.047v212.046h27.814V12.373c-0.01-3.391-1.403-6.472-3.642-8.706
	C124.402-1.394,119.651,0.371,105.253,0.047z"/>
<path style="fill:#AD8338;" d="M497.61,210.032c-0.127,0-3.731,0-3.485,0c-0.187,0-8.484,0-8.362,0c-0.103,0-468.087,0-457.347,0
	c-0.106,0-5.771,0-5.665,0c-0.451,0-3.223,0-3.091,0h-5.272c-7.934,0-14.366,6.431-14.366,14.366s6.431,14.366,14.366,14.366
	c0.194,0,8.497,0,8.362,0c0.156,0,6.034,0,5.665,0c0.151,0,3.248,0,3.091,0c38.22,0,477.692,0,463.013,0c0.451,0,3.223,0,3.091,0
	c7.934,0,14.366-6.431,14.366-14.366C511.976,216.463,505.544,210.032,497.61,210.032z"/>
<g>
	<path style="fill:#966D2A;" d="M41.336,497.634c0-7.934,6.431-14.366,14.366-14.366c-22.949,0-38.041,0-41.313,0
		c-7.934,0-14.366,6.431-14.366,14.366c0,7.934,6.431,14.366,14.366,14.366c2.847,0,18.004,0,41.313,0
		C47.768,512,41.336,505.568,41.336,497.634z"/>
	<path style="fill:#966D2A;" d="M41.336,406.555c0-7.934,6.431-14.366,14.366-14.366c-23.215,0-38.358,0-41.313,0
		c-7.934,0-14.366,6.431-14.366,14.366s6.431,14.366,14.366,14.366c2.847,0,18.004,0,41.313,0
		C47.768,420.922,41.336,414.49,41.336,406.555z"/>
	<path style="fill:#966D2A;" d="M41.336,315.476c0-7.934,6.431-14.366,14.366-14.366c-23.256,0-38.406,0-41.313,0
		c-7.934,0-14.366,6.431-14.366,14.366c0,7.934,6.431,14.366,14.366,14.366c4.401,0,19.313,0,41.313,0
		C47.768,329.842,41.336,323.411,41.336,315.476z"/>
	<path style="fill:#966D2A;" d="M41.336,224.398c0-7.934,6.431-14.366,14.366-14.366c-1.343,0-37.345,0-36.042,0h-5.272
		c-7.934,0-14.366,6.431-14.366,14.366s6.431,14.366,14.366,14.366c21.646,0,2.418,0,41.313,0
		C47.768,238.764,41.336,232.332,41.336,224.398z"/>
</g>
<path style="fill:#E6E6E6;" d="M357.079,56.817c-27.823,0-49.758,0-77.605,0c-7.68,0-13.907,6.226-13.907,13.907
	c0,7.681,6.226,13.907,13.907,13.907c15.463,0,62.201,0,77.605,0c7.681,0,13.907-6.226,13.907-13.907
	C370.987,63.043,364.76,56.817,357.079,56.817z"/>
<path style="fill:#CCCCCC;" d="M357.079,84.631c-23.381,0-54.256,0-77.605,0c-7.68,0-13.907,6.226-13.907,13.907
	c0,7.681,6.226,13.907,13.907,13.907c23.662,0,53.899,0,77.605,0c7.681,0,13.907-6.226,13.907-13.907
	C370.987,90.857,364.76,84.631,357.079,84.631z"/>
<path style="fill:#BAB9B9;" d="M291.321,98.538c0-7.681,6.226-13.907,13.907-13.907c-9.057,0-17.841,0-25.754,0
	c-7.68,0-13.907,6.226-13.907,13.907c0,7.681,6.226,13.907,13.907,13.907c8,0,16.758,0,25.754,0
	C297.547,112.445,291.321,106.219,291.321,98.538z"/>
<path style="fill:#E6E6E6;" d="M318.277,274.034c-7.681,0-13.907-6.226-13.907-13.907V98.538c0-7.681,6.226-13.907,13.907-13.907
	c7.681,0,13.907,6.226,13.907,13.907v161.588C332.184,267.808,325.958,274.034,318.277,274.034z"/>
<g>
	<path style="fill:#CCCCCC;" d="M318.277,180.074c-7.681,0-13.907-6.226-13.907-13.907v93.961c0,7.681,6.226,13.907,13.907,13.907
		c7.681,0,13.907-6.226,13.907-13.907v-93.961C332.184,173.847,325.958,180.074,318.277,180.074z"/>
	<path style="fill:#CCCCCC;" d="M305.228,84.631c-7.681,0-13.907-6.226-13.907-13.907s6.224-13.906,13.905-13.907
		c-8.229,0-16.674,0-25.752,0c-7.68,0-13.907,6.226-13.907,13.907c0,7.681,6.226,13.907,13.907,13.907c15.463,0,62.201,0,77.605,0
		h0.002C337.945,84.631,315.151,84.631,305.228,84.631z"/>
</g>
<g>
</g>
<g>
</g>
<g>
</g>
<g>
</g>
<g>
</g>
<g>
</g>
<g>
</g>
<g>
</g>
<g>
</g>
<g>
</g>
<g>
</g>
<g>
</g>
<g>
</g>
<g>
</g>
<g>
</g>
</svg>
